<svg width="364" height="42" viewBox="0 0 364 42" fill="none" xmlns="http://www.w3.org/2000/svg">
<g filter="url(#filter0_d_572_333)">
<mask id="path-1-outside-1_572_333" maskUnits="userSpaceOnUse" x="3" y="0" width="359" height="37" fill="black">
<rect fill="white" x="3" width="359" height="37"/>
<path d="M18.2308 35H7.86768C6.29035 35 5.23353 34.8896 4.69724 34.6688C4.16095 34.4479 3.8928 34.1009 3.8928 33.6277V3.20096C3.8928 1.68672 8.45129 0.929604 17.5683 0.929604C22.805 0.929604 26.4171 1.43435 28.4046 2.44384C30.4235 3.48488 31.717 4.80984 32.2848 6.41872C32.6003 7.36512 32.758 8.46926 32.758 9.73112C32.758 12.1918 32.3321 14.0372 31.4804 15.2676C30.6601 16.4979 29.7611 17.1919 28.7831 17.3496C30.2658 17.6651 31.4961 18.3907 32.4741 19.5264C33.452 20.662 33.941 22.5864 33.941 25.2994C33.941 28.4541 32.9788 30.7885 31.0545 32.3028C29.3825 33.6277 26.8272 34.4637 23.3886 34.8107C21.9375 34.9369 20.2182 35 18.2308 35ZM18.2781 14.3685C19.887 14.3685 20.6914 13.2959 20.6914 11.1507C20.6914 10.0781 20.4706 9.28947 20.0289 8.78472C19.6188 8.24843 19.1456 7.98028 18.6093 7.98028H17.0951V14.3685H18.2781ZM17.0951 27.9493H18.2781C19.887 27.9493 20.6914 26.8767 20.6914 24.7316C20.6914 23.659 20.4706 22.8703 20.0289 22.3656C19.6188 21.8293 19.1456 21.5611 18.6093 21.5611H17.0951V27.9493ZM67.8258 21.7977C67.8258 26.3404 66.5166 29.7475 63.8982 32.0188C61.3114 34.2587 57.5416 35.3786 52.5888 35.3786C47.6675 35.3786 43.8819 34.2587 41.232 32.0188C38.5821 29.7475 37.2571 26.3404 37.2571 21.7977V4.43128C37.2571 3.64262 38.1404 2.93282 39.907 2.30188C41.7052 1.67095 43.7873 1.35548 46.1533 1.35548C48.0461 1.35548 49.2764 1.71827 49.8442 2.44384C50.2543 3.01168 50.4594 3.50066 50.4594 3.91076V18.0121C50.4594 21.5769 50.5856 23.9429 50.8379 25.1101C51.1219 26.2458 51.7055 26.8136 52.5888 26.8136C53.4721 26.8136 54.0241 26.2616 54.245 25.1574C54.4973 24.0218 54.6235 21.6242 54.6235 17.9648V4.43128C54.6235 3.64262 55.5068 2.93282 57.2734 2.30188C59.0716 1.67095 61.1379 1.35548 63.4724 1.35548C65.4598 1.35548 66.7217 1.71827 67.258 2.44384C67.6365 3.01168 67.8258 3.50066 67.8258 3.91076V21.7977ZM86.6869 35H75.5194C73.9736 35 72.9325 34.8896 72.3963 34.6688C71.86 34.4479 71.5918 34.0851 71.5918 33.5804V3.72148C71.5918 2.90127 71.9388 2.31766 72.6329 1.97064C73.3269 1.59208 74.5257 1.4028 76.2292 1.4028H86.8762C92.9331 1.4028 97.1131 2.60158 99.416 4.99912C101.719 7.36512 102.87 11.687 102.87 17.9648C102.87 24.2426 101.672 28.6591 99.274 31.2144C96.8765 33.7381 92.6808 35 86.6869 35ZM86.3083 8.45348C85.5512 8.45348 85.0465 8.51658 84.7941 8.64276V27.76L86.5923 27.9493C87.5387 27.9493 88.2485 27.1922 88.7217 25.678C89.2264 24.1637 89.4788 21.5453 89.4788 17.8228C89.4788 14.1003 89.2264 11.6081 88.7217 10.3463C88.2169 9.08442 87.4125 8.45348 86.3083 8.45348ZM121.299 35H110.131C108.586 35 107.545 34.8896 107.008 34.6688C106.472 34.4479 106.204 34.0851 106.204 33.5804V3.72148C106.204 2.90127 106.551 2.31766 107.245 1.97064C107.939 1.59208 109.138 1.4028 110.841 1.4028H121.488C127.545 1.4028 131.725 2.60158 134.028 4.99912C136.331 7.36512 137.482 11.687 137.482 17.9648C137.482 24.2426 136.284 28.6591 133.886 31.2144C131.488 33.7381 127.293 35 121.299 35ZM120.92 8.45348C120.163 8.45348 119.658 8.51658 119.406 8.64276V27.76L121.204 27.9493C122.151 27.9493 122.86 27.1922 123.334 25.678C123.838 24.1637 124.091 21.5453 124.091 17.8228C124.091 14.1003 123.838 11.6081 123.334 10.3463C122.829 9.08442 122.024 8.45348 120.92 8.45348ZM161.968 33.6277C161.968 34.0378 161.006 34.3691 159.081 34.6214C157.157 34.8738 155.233 35 153.308 35C151.415 35 150.185 34.9054 149.617 34.7161C149.049 34.4953 148.766 34.1325 148.766 33.6277V25.394C142.519 12.6176 139.396 5.67738 139.396 4.57324C139.396 3.91076 140.453 3.21674 142.567 2.49116C144.68 1.76559 146.904 1.4028 149.239 1.4028C152.236 1.4028 153.829 2.28611 154.018 4.05272L155.296 16.7818H155.816L156.715 4.38396C156.778 3.50066 157.898 2.79086 160.075 2.25456C162.252 1.68672 164.318 1.4028 166.274 1.4028C168.23 1.4028 169.586 1.68672 170.343 2.25456C171.101 2.8224 171.479 3.42179 171.479 4.05272C171.479 4.65211 168.309 11.7659 161.968 25.394V33.6277ZM198.823 35H188.46C186.883 35 185.826 34.8896 185.29 34.6688C184.753 34.4479 184.485 34.1009 184.485 33.6277V3.20096C184.485 1.68672 189.044 0.929604 198.161 0.929604C203.397 0.929604 207.009 1.43435 208.997 2.44384C211.016 3.48488 212.309 4.80984 212.877 6.41872C213.193 7.36512 213.35 8.46926 213.35 9.73112C213.35 12.1918 212.924 14.0372 212.073 15.2676C211.252 16.4979 210.353 17.1919 209.375 17.3496C210.858 17.6651 212.088 18.3907 213.066 19.5264C214.044 20.662 214.533 22.5864 214.533 25.2994C214.533 28.4541 213.571 30.7885 211.647 32.3028C209.975 33.6277 207.42 34.4637 203.981 34.8107C202.53 34.9369 200.811 35 198.823 35ZM198.87 14.3685C200.479 14.3685 201.284 13.2959 201.284 11.1507C201.284 10.0781 201.063 9.28947 200.621 8.78472C200.211 8.24843 199.738 7.98028 199.202 7.98028H197.687V14.3685H198.87ZM197.687 27.9493H198.87C200.479 27.9493 201.284 26.8767 201.284 24.7316C201.284 23.659 201.063 22.8703 200.621 22.3656C200.211 21.8293 199.738 21.5611 199.202 21.5611H197.687V27.9493ZM231.099 33.6277C231.099 34.0378 230.137 34.3691 228.212 34.6214C226.288 34.8738 224.348 35 222.392 35C220.468 35 219.222 34.8896 218.654 34.6688C218.118 34.4479 217.849 34.1009 217.849 33.6277V3.20096C217.849 2.38075 218.875 1.79714 220.925 1.45012C223.007 1.10311 225.626 0.929604 228.78 0.929604C231.935 0.929604 233.97 0.945377 234.885 0.976924C235.831 0.976924 236.935 1.02424 238.197 1.11888C239.459 1.21352 240.453 1.37126 241.178 1.59208C241.935 1.81291 242.755 2.09683 243.639 2.44384C244.554 2.79086 245.263 3.24828 245.768 3.81612C246.273 4.35242 246.762 4.99912 247.235 5.75624C248.087 7.11275 248.513 9.05287 248.513 11.5766C248.513 14.0688 248.087 16.1824 247.235 17.9175C246.415 19.621 245.311 20.9144 243.923 21.7977C247.551 27.5077 249.365 31.1355 249.365 32.6813C249.365 34.2271 246.257 35 240.042 35C238.244 35 236.998 34.9211 236.304 34.7634C235.61 34.6057 235.169 34.2587 234.979 33.7224L231.903 23.9744L231.099 23.9271V33.6277ZM231.099 16.6398H232.329C234.159 16.6398 235.074 15.2202 235.074 12.381C235.074 10.9299 234.822 9.90463 234.317 9.30524C233.844 8.70586 233.291 8.40616 232.661 8.40616H231.099V16.6398ZM264.924 33.8643C264.924 34.2113 263.962 34.4953 262.038 34.7161C260.113 34.9054 258.173 35 256.217 35C254.293 35 253.063 34.9211 252.526 34.7634C251.99 34.5741 251.722 34.2744 251.722 33.8643V4.43128C251.722 3.73726 252.637 3.059 254.467 2.39652C256.296 1.7025 258.347 1.35548 260.618 1.35548C262.637 1.35548 263.962 1.78136 264.593 2.63312C264.814 2.94859 264.924 3.26406 264.924 3.57952V33.8643ZM283.823 35H272.655C271.109 35 270.068 34.8896 269.532 34.6688C268.996 34.4479 268.728 34.0851 268.728 33.5804V3.72148C268.728 2.90127 269.075 2.31766 269.769 1.97064C270.463 1.59208 271.661 1.4028 273.365 1.4028H284.012C290.069 1.4028 294.249 2.60158 296.552 4.99912C298.855 7.36512 300.006 11.687 300.006 17.9648C300.006 24.2426 298.807 28.6591 296.41 31.2144C294.012 33.7381 289.817 35 283.823 35ZM283.444 8.45348C282.687 8.45348 282.182 8.51658 281.93 8.64276V27.76L283.728 27.9493C284.674 27.9493 285.384 27.1922 285.857 25.678C286.362 24.1637 286.615 21.5453 286.615 17.8228C286.615 14.1003 286.362 11.6081 285.857 10.3463C285.353 9.08442 284.548 8.45348 283.444 8.45348ZM313.608 35.3786C312.535 35.3786 311.542 35.2681 310.627 35.0473C309.712 34.8265 308.75 34.3691 307.74 33.675C306.762 32.9495 305.926 32.0031 305.232 30.8358C303.655 28.1859 302.866 24.1953 302.866 18.8639C302.866 15.93 303.261 13.3432 304.049 11.1034C304.838 8.86359 305.832 7.12852 307.031 5.8982C308.229 4.63634 309.665 3.61107 311.337 2.82241C313.009 2.03374 314.57 1.52899 316.021 1.30817C317.473 1.05579 319.018 0.929604 320.659 0.929604C324.444 0.929604 327.11 1.26084 328.656 1.92332C330.202 2.55426 330.975 3.78458 330.975 5.61428C330.975 7.06543 330.706 8.64276 330.17 10.3463C329.634 12.0183 328.845 12.8542 327.804 12.8542C327.552 12.8542 326.479 12.6176 324.586 12.1444C322.694 11.6397 321.274 11.3873 320.328 11.3873C317.615 11.3873 316.258 13.6745 316.258 18.2487C316.258 20.5516 316.573 22.2709 317.204 23.4066C317.835 24.5107 318.624 25.1259 319.57 25.2521V20.9933C319.57 20.2046 320.375 19.479 321.984 18.8166C323.593 18.1541 325.138 17.8228 326.621 17.8228C328.104 17.8228 329.176 17.9175 329.839 18.1068C330.533 18.296 331.006 18.5642 331.258 18.9112C331.7 19.479 331.921 19.9838 331.921 20.4254V33.5331C331.921 33.9432 331.085 34.2744 329.413 34.5268C327.773 34.7792 326.053 34.9054 324.255 34.9054C322.488 34.9054 321.369 34.8265 320.895 34.6688C320.422 34.4795 320.154 33.9905 320.091 33.2018L319.76 30.41H319.381C319.16 31.7665 318.592 32.9337 317.678 33.9116C316.794 34.8896 315.438 35.3786 313.608 35.3786ZM359.216 35H339.153C337.607 35 336.566 34.8896 336.03 34.6688C335.493 34.4479 335.225 34.1009 335.225 33.6277V3.67416C335.225 2.85395 335.588 2.27034 336.314 1.92332C337.071 1.57631 338.411 1.4028 340.336 1.4028H359.358C360.021 1.4028 360.352 2.50694 360.352 4.7152C360.352 6.89192 360.21 8.5639 359.926 9.73112C359.642 10.8668 359.264 11.4346 358.791 11.4346C356.74 11.4346 353.286 11.2296 348.427 10.8195V13.9899C353.096 13.8006 356.141 13.706 357.56 13.706C358.412 13.706 358.838 14.6997 358.838 16.6872C358.838 18.6746 358.664 20.1888 358.317 21.2299C358.002 22.2394 357.56 22.7441 356.992 22.7441L348.427 22.5548V25.5833C353.917 25.1732 357.702 24.9682 359.784 24.9682C360.447 24.9682 360.778 26.0723 360.778 28.2806C360.778 30.4888 360.636 32.1608 360.352 33.2965C360.068 34.4322 359.69 35 359.216 35Z"/>
</mask>
<path d="M18.2308 35H7.86768C6.29035 35 5.23353 34.8896 4.69724 34.6688C4.16095 34.4479 3.8928 34.1009 3.8928 33.6277V3.20096C3.8928 1.68672 8.45129 0.929604 17.5683 0.929604C22.805 0.929604 26.4171 1.43435 28.4046 2.44384C30.4235 3.48488 31.717 4.80984 32.2848 6.41872C32.6003 7.36512 32.758 8.46926 32.758 9.73112C32.758 12.1918 32.3321 14.0372 31.4804 15.2676C30.6601 16.4979 29.7611 17.1919 28.7831 17.3496C30.2658 17.6651 31.4961 18.3907 32.4741 19.5264C33.452 20.662 33.941 22.5864 33.941 25.2994C33.941 28.4541 32.9788 30.7885 31.0545 32.3028C29.3825 33.6277 26.8272 34.4637 23.3886 34.8107C21.9375 34.9369 20.2182 35 18.2308 35ZM18.2781 14.3685C19.887 14.3685 20.6914 13.2959 20.6914 11.1507C20.6914 10.0781 20.4706 9.28947 20.0289 8.78472C19.6188 8.24843 19.1456 7.98028 18.6093 7.98028H17.0951V14.3685H18.2781ZM17.0951 27.9493H18.2781C19.887 27.9493 20.6914 26.8767 20.6914 24.7316C20.6914 23.659 20.4706 22.8703 20.0289 22.3656C19.6188 21.8293 19.1456 21.5611 18.6093 21.5611H17.0951V27.9493ZM67.8258 21.7977C67.8258 26.3404 66.5166 29.7475 63.8982 32.0188C61.3114 34.2587 57.5416 35.3786 52.5888 35.3786C47.6675 35.3786 43.8819 34.2587 41.232 32.0188C38.5821 29.7475 37.2571 26.3404 37.2571 21.7977V4.43128C37.2571 3.64262 38.1404 2.93282 39.907 2.30188C41.7052 1.67095 43.7873 1.35548 46.1533 1.35548C48.0461 1.35548 49.2764 1.71827 49.8442 2.44384C50.2543 3.01168 50.4594 3.50066 50.4594 3.91076V18.0121C50.4594 21.5769 50.5856 23.9429 50.8379 25.1101C51.1219 26.2458 51.7055 26.8136 52.5888 26.8136C53.4721 26.8136 54.0241 26.2616 54.245 25.1574C54.4973 24.0218 54.6235 21.6242 54.6235 17.9648V4.43128C54.6235 3.64262 55.5068 2.93282 57.2734 2.30188C59.0716 1.67095 61.1379 1.35548 63.4724 1.35548C65.4598 1.35548 66.7217 1.71827 67.258 2.44384C67.6365 3.01168 67.8258 3.50066 67.8258 3.91076V21.7977ZM86.6869 35H75.5194C73.9736 35 72.9325 34.8896 72.3963 34.6688C71.86 34.4479 71.5918 34.0851 71.5918 33.5804V3.72148C71.5918 2.90127 71.9388 2.31766 72.6329 1.97064C73.3269 1.59208 74.5257 1.4028 76.2292 1.4028H86.8762C92.9331 1.4028 97.1131 2.60158 99.416 4.99912C101.719 7.36512 102.87 11.687 102.87 17.9648C102.87 24.2426 101.672 28.6591 99.274 31.2144C96.8765 33.7381 92.6808 35 86.6869 35ZM86.3083 8.45348C85.5512 8.45348 85.0465 8.51658 84.7941 8.64276V27.76L86.5923 27.9493C87.5387 27.9493 88.2485 27.1922 88.7217 25.678C89.2264 24.1637 89.4788 21.5453 89.4788 17.8228C89.4788 14.1003 89.2264 11.6081 88.7217 10.3463C88.2169 9.08442 87.4125 8.45348 86.3083 8.45348ZM121.299 35H110.131C108.586 35 107.545 34.8896 107.008 34.6688C106.472 34.4479 106.204 34.0851 106.204 33.5804V3.72148C106.204 2.90127 106.551 2.31766 107.245 1.97064C107.939 1.59208 109.138 1.4028 110.841 1.4028H121.488C127.545 1.4028 131.725 2.60158 134.028 4.99912C136.331 7.36512 137.482 11.687 137.482 17.9648C137.482 24.2426 136.284 28.6591 133.886 31.2144C131.488 33.7381 127.293 35 121.299 35ZM120.92 8.45348C120.163 8.45348 119.658 8.51658 119.406 8.64276V27.76L121.204 27.9493C122.151 27.9493 122.86 27.1922 123.334 25.678C123.838 24.1637 124.091 21.5453 124.091 17.8228C124.091 14.1003 123.838 11.6081 123.334 10.3463C122.829 9.08442 122.024 8.45348 120.92 8.45348ZM161.968 33.6277C161.968 34.0378 161.006 34.3691 159.081 34.6214C157.157 34.8738 155.233 35 153.308 35C151.415 35 150.185 34.9054 149.617 34.7161C149.049 34.4953 148.766 34.1325 148.766 33.6277V25.394C142.519 12.6176 139.396 5.67738 139.396 4.57324C139.396 3.91076 140.453 3.21674 142.567 2.49116C144.68 1.76559 146.904 1.4028 149.239 1.4028C152.236 1.4028 153.829 2.28611 154.018 4.05272L155.296 16.7818H155.816L156.715 4.38396C156.778 3.50066 157.898 2.79086 160.075 2.25456C162.252 1.68672 164.318 1.4028 166.274 1.4028C168.23 1.4028 169.586 1.68672 170.343 2.25456C171.101 2.8224 171.479 3.42179 171.479 4.05272C171.479 4.65211 168.309 11.7659 161.968 25.394V33.6277ZM198.823 35H188.46C186.883 35 185.826 34.8896 185.29 34.6688C184.753 34.4479 184.485 34.1009 184.485 33.6277V3.20096C184.485 1.68672 189.044 0.929604 198.161 0.929604C203.397 0.929604 207.009 1.43435 208.997 2.44384C211.016 3.48488 212.309 4.80984 212.877 6.41872C213.193 7.36512 213.35 8.46926 213.35 9.73112C213.35 12.1918 212.924 14.0372 212.073 15.2676C211.252 16.4979 210.353 17.1919 209.375 17.3496C210.858 17.6651 212.088 18.3907 213.066 19.5264C214.044 20.662 214.533 22.5864 214.533 25.2994C214.533 28.4541 213.571 30.7885 211.647 32.3028C209.975 33.6277 207.42 34.4637 203.981 34.8107C202.53 34.9369 200.811 35 198.823 35ZM198.87 14.3685C200.479 14.3685 201.284 13.2959 201.284 11.1507C201.284 10.0781 201.063 9.28947 200.621 8.78472C200.211 8.24843 199.738 7.98028 199.202 7.98028H197.687V14.3685H198.87ZM197.687 27.9493H198.87C200.479 27.9493 201.284 26.8767 201.284 24.7316C201.284 23.659 201.063 22.8703 200.621 22.3656C200.211 21.8293 199.738 21.5611 199.202 21.5611H197.687V27.9493ZM231.099 33.6277C231.099 34.0378 230.137 34.3691 228.212 34.6214C226.288 34.8738 224.348 35 222.392 35C220.468 35 219.222 34.8896 218.654 34.6688C218.118 34.4479 217.849 34.1009 217.849 33.6277V3.20096C217.849 2.38075 218.875 1.79714 220.925 1.45012C223.007 1.10311 225.626 0.929604 228.78 0.929604C231.935 0.929604 233.97 0.945377 234.885 0.976924C235.831 0.976924 236.935 1.02424 238.197 1.11888C239.459 1.21352 240.453 1.37126 241.178 1.59208C241.935 1.81291 242.755 2.09683 243.639 2.44384C244.554 2.79086 245.263 3.24828 245.768 3.81612C246.273 4.35242 246.762 4.99912 247.235 5.75624C248.087 7.11275 248.513 9.05287 248.513 11.5766C248.513 14.0688 248.087 16.1824 247.235 17.9175C246.415 19.621 245.311 20.9144 243.923 21.7977C247.551 27.5077 249.365 31.1355 249.365 32.6813C249.365 34.2271 246.257 35 240.042 35C238.244 35 236.998 34.9211 236.304 34.7634C235.61 34.6057 235.169 34.2587 234.979 33.7224L231.903 23.9744L231.099 23.9271V33.6277ZM231.099 16.6398H232.329C234.159 16.6398 235.074 15.2202 235.074 12.381C235.074 10.9299 234.822 9.90463 234.317 9.30524C233.844 8.70586 233.291 8.40616 232.661 8.40616H231.099V16.6398ZM264.924 33.8643C264.924 34.2113 263.962 34.4953 262.038 34.7161C260.113 34.9054 258.173 35 256.217 35C254.293 35 253.063 34.9211 252.526 34.7634C251.99 34.5741 251.722 34.2744 251.722 33.8643V4.43128C251.722 3.73726 252.637 3.059 254.467 2.39652C256.296 1.7025 258.347 1.35548 260.618 1.35548C262.637 1.35548 263.962 1.78136 264.593 2.63312C264.814 2.94859 264.924 3.26406 264.924 3.57952V33.8643ZM283.823 35H272.655C271.109 35 270.068 34.8896 269.532 34.6688C268.996 34.4479 268.728 34.0851 268.728 33.5804V3.72148C268.728 2.90127 269.075 2.31766 269.769 1.97064C270.463 1.59208 271.661 1.4028 273.365 1.4028H284.012C290.069 1.4028 294.249 2.60158 296.552 4.99912C298.855 7.36512 300.006 11.687 300.006 17.9648C300.006 24.2426 298.807 28.6591 296.41 31.2144C294.012 33.7381 289.817 35 283.823 35ZM283.444 8.45348C282.687 8.45348 282.182 8.51658 281.93 8.64276V27.76L283.728 27.9493C284.674 27.9493 285.384 27.1922 285.857 25.678C286.362 24.1637 286.615 21.5453 286.615 17.8228C286.615 14.1003 286.362 11.6081 285.857 10.3463C285.353 9.08442 284.548 8.45348 283.444 8.45348ZM313.608 35.3786C312.535 35.3786 311.542 35.2681 310.627 35.0473C309.712 34.8265 308.75 34.3691 307.74 33.675C306.762 32.9495 305.926 32.0031 305.232 30.8358C303.655 28.1859 302.866 24.1953 302.866 18.8639C302.866 15.93 303.261 13.3432 304.049 11.1034C304.838 8.86359 305.832 7.12852 307.031 5.8982C308.229 4.63634 309.665 3.61107 311.337 2.82241C313.009 2.03374 314.57 1.52899 316.021 1.30817C317.473 1.05579 319.018 0.929604 320.659 0.929604C324.444 0.929604 327.11 1.26084 328.656 1.92332C330.202 2.55426 330.975 3.78458 330.975 5.61428C330.975 7.06543 330.706 8.64276 330.17 10.3463C329.634 12.0183 328.845 12.8542 327.804 12.8542C327.552 12.8542 326.479 12.6176 324.586 12.1444C322.694 11.6397 321.274 11.3873 320.328 11.3873C317.615 11.3873 316.258 13.6745 316.258 18.2487C316.258 20.5516 316.573 22.2709 317.204 23.4066C317.835 24.5107 318.624 25.1259 319.57 25.2521V20.9933C319.57 20.2046 320.375 19.479 321.984 18.8166C323.593 18.1541 325.138 17.8228 326.621 17.8228C328.104 17.8228 329.176 17.9175 329.839 18.1068C330.533 18.296 331.006 18.5642 331.258 18.9112C331.7 19.479 331.921 19.9838 331.921 20.4254V33.5331C331.921 33.9432 331.085 34.2744 329.413 34.5268C327.773 34.7792 326.053 34.9054 324.255 34.9054C322.488 34.9054 321.369 34.8265 320.895 34.6688C320.422 34.4795 320.154 33.9905 320.091 33.2018L319.76 30.41H319.381C319.16 31.7665 318.592 32.9337 317.678 33.9116C316.794 34.8896 315.438 35.3786 313.608 35.3786ZM359.216 35H339.153C337.607 35 336.566 34.8896 336.03 34.6688C335.493 34.4479 335.225 34.1009 335.225 33.6277V3.67416C335.225 2.85395 335.588 2.27034 336.314 1.92332C337.071 1.57631 338.411 1.4028 340.336 1.4028H359.358C360.021 1.4028 360.352 2.50694 360.352 4.7152C360.352 6.89192 360.21 8.5639 359.926 9.73112C359.642 10.8668 359.264 11.4346 358.791 11.4346C356.74 11.4346 353.286 11.2296 348.427 10.8195V13.9899C353.096 13.8006 356.141 13.706 357.56 13.706C358.412 13.706 358.838 14.6997 358.838 16.6872C358.838 18.6746 358.664 20.1888 358.317 21.2299C358.002 22.2394 357.56 22.7441 356.992 22.7441L348.427 22.5548V25.5833C353.917 25.1732 357.702 24.9682 359.784 24.9682C360.447 24.9682 360.778 26.0723 360.778 28.2806C360.778 30.4888 360.636 32.1608 360.352 33.2965C360.068 34.4322 359.69 35 359.216 35Z" fill="#6D6AFE"/>
<path d="M4.69724 34.6688L4.97941 33.9835L4.69724 34.6688ZM28.4046 2.44384L28.7442 1.78514L28.7402 1.78309L28.4046 2.44384ZM32.2848 6.41872L32.988 6.18433L32.9837 6.17207L32.2848 6.41872ZM31.4804 15.2676L30.8709 14.8457L30.8637 14.8565L31.4804 15.2676ZM28.7831 17.3496L28.6651 16.618L28.6289 18.0745L28.7831 17.3496ZM32.4741 19.5264L33.0357 19.0428L32.4741 19.5264ZM31.0545 32.3028L30.5962 31.7203L30.5942 31.7219L31.0545 32.3028ZM23.3886 34.8107L23.4528 35.5491L23.463 35.5481L23.3886 34.8107ZM20.0289 8.78472L19.4402 9.23491L19.4551 9.25434L19.4712 9.27274L20.0289 8.78472ZM17.0951 7.98028V7.23918H16.354V7.98028H17.0951ZM17.0951 14.3685H16.354V15.1096H17.0951V14.3685ZM17.0951 27.9493H16.354V28.6904H17.0951V27.9493ZM20.0289 22.3656L19.4402 22.8157L19.4551 22.8352L19.4712 22.8536L20.0289 22.3656ZM17.0951 21.5611V20.82H16.354V21.5611H17.0951ZM18.2308 34.2589H7.86768V35.7411H18.2308V34.2589ZM7.86768 34.2589C7.0937 34.2589 6.46288 34.2317 5.96908 34.1801C5.46297 34.1272 5.14865 34.0532 4.97941 33.9835L4.41507 35.354C4.78212 35.5052 5.26435 35.5967 5.81506 35.6543C6.37807 35.7131 7.06432 35.7411 7.86768 35.7411V34.2589ZM4.97941 33.9835C4.79375 33.907 4.71348 33.8326 4.68033 33.7897C4.65466 33.7565 4.6339 33.7141 4.6339 33.6277H3.1517C3.1517 34.0145 3.26501 34.3822 3.50749 34.696C3.74249 35.0001 4.06444 35.2097 4.41507 35.354L4.97941 33.9835ZM4.6339 33.6277V3.20096H3.1517V33.6277H4.6339ZM4.6339 3.20096C4.6339 3.20043 4.63392 3.20119 4.63366 3.20252C4.63341 3.20383 4.63325 3.20381 4.63399 3.20198C4.63531 3.19867 4.64273 3.18165 4.66834 3.15188C4.72407 3.08709 4.84447 2.98694 5.07803 2.87056C5.54874 2.63603 6.31723 2.41387 7.4331 2.22853C9.65014 1.8603 13.0193 1.67071 17.5683 1.67071V0.188501C13.0002 0.188501 9.5317 0.377465 7.19024 0.766356C6.02686 0.959582 5.08592 1.21062 4.417 1.54392C3.77772 1.86246 3.1517 2.3835 3.1517 3.20096H4.6339ZM17.5683 1.67071C22.8055 1.67071 26.255 2.18322 28.0689 3.1046L28.7402 1.78309C26.5793 0.685482 22.8045 0.188501 17.5683 0.188501V1.67071ZM28.0649 3.10254C29.973 4.0864 31.0995 5.28704 31.5859 6.66538L32.9837 6.17207C32.3344 4.33265 30.8741 2.88336 28.7442 1.78515L28.0649 3.10254ZM31.5817 6.65308C31.8663 7.50694 32.0169 8.5288 32.0169 9.73112H33.4991C33.4991 8.40971 33.3342 7.2233 32.9879 6.18437L31.5817 6.65308ZM32.0169 9.73112C32.0169 12.1292 31.5977 13.7961 30.871 14.8457L32.0897 15.6894C33.0665 14.2784 33.4991 12.2544 33.4991 9.73112H32.0169ZM30.8637 14.8565C30.1014 15.9999 29.3571 16.5064 28.6651 16.618L28.9011 18.0813C30.1651 17.8774 31.2189 16.9959 32.097 15.6787L30.8637 14.8565ZM28.6289 18.0745C29.955 18.3567 31.0416 18.9986 31.9125 20.0099L33.0357 19.0428C31.9507 17.7828 30.5766 16.9735 28.9373 16.6248L28.6289 18.0745ZM31.9125 20.0099C32.7119 20.9384 33.1999 22.6356 33.1999 25.2994H34.6821C34.6821 22.5372 34.1921 20.3857 33.0357 19.0428L31.9125 20.0099ZM33.1999 25.2994C33.1999 28.2981 32.2926 30.3855 30.5962 31.7203L31.5128 32.8852C33.6651 31.1915 34.6821 28.61 34.6821 25.2994H33.1999ZM30.5942 31.7219C29.0824 32.9199 26.691 33.7326 23.3142 34.0734L23.463 35.5481C26.9634 35.1948 29.6826 34.3355 31.5148 32.8836L30.5942 31.7219ZM23.3244 34.0724C21.9007 34.1962 20.2039 34.2589 18.2308 34.2589V35.7411C20.2325 35.7411 21.9743 35.6776 23.4528 35.549L23.3244 34.0724ZM18.2781 15.1096C19.2633 15.1096 20.11 14.7699 20.681 14.0087C21.2218 13.2876 21.4325 12.2946 21.4325 11.1507H19.9503C19.9503 12.152 19.7588 12.7679 19.4952 13.1194C19.2617 13.4308 18.9017 13.6274 18.2781 13.6274V15.1096ZM21.4325 11.1507C21.4325 10.0002 21.1996 8.99722 20.5867 8.2967L19.4712 9.27274C19.7415 9.58172 19.9503 10.1561 19.9503 11.1507H21.4325ZM20.6176 8.33454C20.1073 7.66722 19.4352 7.23918 18.6093 7.23918V8.72139C18.856 8.72139 19.1303 8.82963 19.4402 9.23491L20.6176 8.33454ZM18.6093 7.23918H17.0951V8.72139H18.6093V7.23918ZM16.354 7.98028V14.3685H17.8362V7.98028H16.354ZM17.0951 15.1096H18.2781V13.6274H17.0951V15.1096ZM17.0951 28.6904H18.2781V27.2082H17.0951V28.6904ZM18.2781 28.6904C19.2633 28.6904 20.11 28.3508 20.681 27.5895C21.2218 26.8684 21.4325 25.8754 21.4325 24.7316H19.9503C19.9503 25.7329 19.7588 26.3488 19.4952 26.7002C19.2617 27.0116 18.9017 27.2082 18.2781 27.2082V28.6904ZM21.4325 24.7316C21.4325 23.581 21.1996 22.5781 20.5867 21.8775L19.4712 22.8536C19.7415 23.1626 19.9503 23.7369 19.9503 24.7316H21.4325ZM20.6176 21.9154C20.1073 21.2481 19.4352 20.82 18.6093 20.82V22.3022C18.856 22.3022 19.1303 22.4105 19.4402 22.8157L20.6176 21.9154ZM18.6093 20.82H17.0951V22.3022H18.6093V20.82ZM16.354 21.5611V27.9493H17.8362V21.5611H16.354ZM63.8983 32.0188L64.3834 32.5791L64.3839 32.5787L63.8983 32.0188ZM41.232 32.0188L40.7497 32.5815L40.7536 32.5848L41.232 32.0188ZM39.907 2.30188L39.6616 1.60257L39.6578 1.60396L39.907 2.30188ZM49.8442 2.44384L50.445 2.00994L50.4366 1.99835L50.4278 1.9871L49.8442 2.44384ZM50.8379 25.1101L50.1136 25.2667L50.1161 25.2783L50.119 25.2899L50.8379 25.1101ZM54.245 25.1574L53.5215 24.9967L53.5198 25.0044L53.5183 25.0121L54.245 25.1574ZM57.2734 2.30188L57.0281 1.60257L57.0242 1.60396L57.2734 2.30188ZM67.258 2.44384L67.8746 2.03275L67.8646 2.0178L67.8539 2.00334L67.258 2.44384ZM67.0847 21.7977C67.0847 26.1966 65.8219 29.3691 63.4126 31.459L64.3839 32.5787C67.2114 30.1259 68.5669 26.4843 68.5669 21.7977H67.0847ZM63.4131 31.4586C61.0103 33.5391 57.4417 34.6375 52.5888 34.6375V36.1197C57.6415 36.1197 61.6126 34.9782 64.3834 32.5791L63.4131 31.4586ZM52.5888 34.6375C47.7704 34.6375 44.1801 33.5404 41.7104 31.4528L40.7536 32.5848C43.5836 34.9769 47.5646 36.1197 52.5888 36.1197V34.6375ZM41.7143 31.4562C39.275 29.3654 37.9982 26.1938 37.9982 21.7977H36.516C36.516 26.4871 37.8891 30.1296 40.7497 32.5815L41.7143 31.4562ZM37.9982 21.7977V4.43128H36.516V21.7977H37.9982ZM37.9982 4.43128C37.9982 4.34693 38.0375 4.16337 38.3838 3.88513C38.7325 3.60489 39.3068 3.30321 40.1563 2.99981L39.6578 1.60396C38.7406 1.9315 37.9899 2.30018 37.4554 2.72974C36.9183 3.1613 36.516 3.72698 36.516 4.43128H37.9982ZM40.1524 3.00119C41.8553 2.40368 43.8514 2.09659 46.1533 2.09659V0.614382C43.7231 0.614382 41.5551 0.938216 39.6616 1.60258L40.1524 3.00119ZM46.1533 2.09659C47.059 2.09659 47.7629 2.18417 48.286 2.33842C48.8095 2.49279 49.1026 2.69874 49.2606 2.90059L50.4278 1.9871C50.018 1.46338 49.412 1.12514 48.7052 0.916732C47.998 0.708192 47.1403 0.614382 46.1533 0.614382V2.09659ZM49.2434 2.87775C49.6202 3.39947 49.7183 3.73251 49.7183 3.91076H51.2005C51.2005 3.2688 50.8884 2.6239 50.445 2.00994L49.2434 2.87775ZM49.7183 3.91076V18.0121H51.2005V3.91076H49.7183ZM49.7183 18.0121C49.7183 21.5636 49.8417 24.0093 50.1136 25.2667L51.5623 24.9535C51.3294 23.8765 51.2005 21.5902 51.2005 18.0121H49.7183ZM50.119 25.2899C50.2805 25.936 50.547 26.5057 50.9718 26.9189C51.4143 27.3495 51.9721 27.5547 52.5888 27.5547V26.0725C52.3222 26.0725 52.1465 25.9939 52.0054 25.8566C51.8465 25.702 51.6793 25.4199 51.5569 24.9304L50.119 25.2899ZM52.5888 27.5547C53.1988 27.5547 53.7556 27.3574 54.1893 26.9236C54.6052 26.5078 54.8447 25.9379 54.9717 25.3028L53.5183 25.0121C53.4245 25.4811 53.2775 25.7393 53.1413 25.8756C53.0229 25.9939 52.862 26.0725 52.5888 26.0725V27.5547ZM54.9684 25.3182C55.2416 24.0889 55.3646 21.6073 55.3646 17.9648H53.8824C53.8824 21.6411 53.7531 23.9546 53.5215 24.9967L54.9684 25.3182ZM55.3646 17.9648V4.43128H53.8824V17.9648H55.3646ZM55.3646 4.43128C55.3646 4.34693 55.404 4.16337 55.7502 3.88513C56.099 3.60489 56.6732 3.30321 57.5227 2.99981L57.0242 1.60396C56.1071 1.9315 55.3563 2.30018 54.8218 2.72974C54.2847 3.1613 53.8824 3.72698 53.8824 4.43128H55.3646ZM57.5188 3.00119C59.2227 2.40335 61.2033 2.09659 63.4724 2.09659V0.614382C61.0725 0.614382 58.9206 0.938553 57.0281 1.60258L57.5188 3.00119ZM63.4724 2.09659C64.4285 2.09659 65.165 2.1847 65.7046 2.33982C66.2476 2.49594 66.5261 2.70054 66.662 2.88435L67.8539 2.00334C67.4535 1.46157 66.833 1.122 66.1141 0.915323C65.3918 0.707665 64.5037 0.614382 63.4724 0.614382V2.09659ZM66.6413 2.85493C66.9872 3.37374 67.0847 3.715 67.0847 3.91076H68.5669C68.5669 3.28631 68.2859 2.64963 67.8746 2.03275L66.6413 2.85493ZM67.0847 3.91076V21.7977H68.5669V3.91076H67.0847ZM72.3963 34.6688L72.6784 33.9835L72.3963 34.6688ZM72.6329 1.97064L72.9643 2.63351L72.9761 2.62759L72.9877 2.62126L72.6329 1.97064ZM99.416 4.99912L98.8815 5.51252L98.8849 5.51604L99.416 4.99912ZM99.274 31.2144L99.8113 31.7248L99.8145 31.7215L99.274 31.2144ZM84.7941 8.64276L84.4627 7.9799L84.053 8.18474V8.64276H84.7941ZM84.7941 27.76H84.053V28.4272L84.7165 28.4971L84.7941 27.76ZM86.5923 27.9493L86.5147 28.6864L86.5534 28.6904H86.5923V27.9493ZM88.7216 25.678L88.0185 25.4436L88.0143 25.4569L88.7216 25.678ZM88.7216 10.3463L88.0336 10.6215L88.7216 10.3463ZM86.6869 34.2589H75.5194V35.7411H86.6869V34.2589ZM75.5194 34.2589C74.7616 34.2589 74.1429 34.2317 73.6574 34.1802C73.1603 34.1275 72.8489 34.0537 72.6784 33.9835L72.1141 35.354C72.4799 35.5047 72.9571 35.5965 73.5011 35.6542C74.0566 35.7131 74.7314 35.7411 75.5194 35.7411V34.2589ZM72.6784 33.9835C72.5002 33.9101 72.4227 33.8363 72.3889 33.7905C72.3602 33.7517 72.3329 33.694 72.3329 33.5804H70.8507C70.8507 33.9716 70.9575 34.3476 71.1969 34.6716C71.4312 34.9885 71.7561 35.2066 72.1141 35.354L72.6784 33.9835ZM72.3329 33.5804V3.72149H70.8507V33.5804H72.3329ZM72.3329 3.72149C72.3329 3.41692 72.3966 3.20286 72.4891 3.04737C72.5801 2.8943 72.7256 2.75283 72.9643 2.63351L72.3014 1.30778C71.846 1.53547 71.4711 1.85931 71.2151 2.28985C70.9605 2.71798 70.8507 3.20583 70.8507 3.72149H72.3329ZM72.9877 2.62126C73.5049 2.33917 74.5376 2.14391 76.2292 2.14391V0.661701C74.5137 0.661701 73.1489 0.845001 72.278 1.32003L72.9877 2.62126ZM76.2292 2.14391H86.8762V0.661701H76.2292V2.14391ZM86.8762 2.14391C92.8829 2.14391 96.7967 3.342 98.8815 5.51251L99.9504 4.48574C97.4295 1.86115 92.9834 0.661701 86.8762 0.661701V2.14391ZM98.8849 5.51604C100.974 7.66276 102.129 11.7259 102.129 17.9648H103.611C103.611 11.6482 102.463 7.06749 99.947 4.48221L98.8849 5.51604ZM102.129 17.9648C102.129 24.1894 100.933 28.3636 98.7336 30.7073L99.8145 31.7215C102.411 28.9546 103.611 24.2957 103.611 17.9648H102.129ZM98.7367 30.704C96.5518 33.0039 92.6153 34.2589 86.6869 34.2589V35.7411C92.7462 35.7411 97.2011 34.4724 99.8113 31.7248L98.7367 30.704ZM86.3083 7.71238C85.9123 7.71238 85.5637 7.72871 85.27 7.76542C84.99 7.80042 84.7016 7.86041 84.4627 7.9799L85.1255 9.30562C85.1245 9.30616 85.1303 9.30316 85.1454 9.2979C85.1602 9.29269 85.1816 9.28615 85.2104 9.27893C85.269 9.26428 85.3489 9.2493 85.4538 9.23618C85.6649 9.2098 85.9472 9.19458 86.3083 9.19458V7.71238ZM84.053 8.64276V27.76H85.5352V8.64276H84.053ZM84.7165 28.4971L86.5147 28.6864L86.6698 27.2123L84.8717 27.023L84.7165 28.4971ZM86.5923 28.6904C88.0588 28.6904 88.9343 27.482 89.429 25.899L88.0143 25.4569C87.5626 26.9024 87.0185 27.2082 86.5923 27.2082V28.6904ZM89.4247 25.9123C89.9711 24.2733 90.2199 21.5473 90.2199 17.8228H88.7377C88.7377 21.5434 88.4817 24.0541 88.0186 25.4436L89.4247 25.9123ZM90.2199 17.8228C90.2199 15.9474 90.1564 14.3668 90.0268 13.0872C89.8985 11.8198 89.701 10.7991 89.4097 10.071L88.0336 10.6215C88.2471 11.1553 88.4281 12.0117 88.5522 13.2365C88.6749 14.449 88.7377 15.9758 88.7377 17.8228H90.2199ZM89.4097 10.071C89.1244 9.35759 88.7304 8.76183 88.1971 8.34354C87.6537 7.91733 87.0121 7.71238 86.3083 7.71238V9.19458C86.7087 9.19458 87.0214 9.3051 87.2824 9.50982C87.5535 9.72247 87.8142 10.0731 88.0336 10.6215L89.4097 10.071ZM107.008 34.6688L107.29 33.9835L107.008 34.6688ZM107.245 1.97064L107.576 2.63351L107.588 2.62759L107.6 2.62126L107.245 1.97064ZM134.028 4.99912L133.493 5.51252L133.497 5.51604L134.028 4.99912ZM133.886 31.2144L134.423 31.7248L134.426 31.7215L133.886 31.2144ZM119.406 8.64276L119.075 7.9799L118.665 8.18474V8.64276H119.406ZM119.406 27.76H118.665V28.4272L119.328 28.4971L119.406 27.76ZM121.204 27.9493L121.127 28.6864L121.165 28.6904H121.204V27.9493ZM123.334 25.678L122.63 25.4436L122.626 25.4569L123.334 25.678ZM123.334 10.3463L122.646 10.6215L123.334 10.3463ZM121.299 34.2589H110.131V35.7411H121.299V34.2589ZM110.131 34.2589C109.374 34.2589 108.755 34.2317 108.269 34.1802C107.772 34.1275 107.461 34.0537 107.29 33.9835L106.726 35.354C107.092 35.5047 107.569 35.5965 108.113 35.6542C108.669 35.7131 109.343 35.7411 110.131 35.7411V34.2589ZM107.29 33.9835C107.112 33.9101 107.035 33.8363 107.001 33.7905C106.972 33.7517 106.945 33.694 106.945 33.5804H105.463C105.463 33.9716 105.569 34.3476 105.809 34.6716C106.043 34.9885 106.368 35.2066 106.726 35.354L107.29 33.9835ZM106.945 33.5804V3.72149H105.463V33.5804H106.945ZM106.945 3.72149C106.945 3.41692 107.009 3.20286 107.101 3.04737C107.192 2.8943 107.338 2.75283 107.576 2.63351L106.913 1.30778C106.458 1.53547 106.083 1.85931 105.827 2.28985C105.573 2.71798 105.463 3.20583 105.463 3.72149H106.945ZM107.6 2.62126C108.117 2.33917 109.15 2.14391 110.841 2.14391V0.661701C109.126 0.661701 107.761 0.845001 106.89 1.32003L107.6 2.62126ZM110.841 2.14391H121.488V0.661701H110.841V2.14391ZM121.488 2.14391C127.495 2.14391 131.409 3.342 133.493 5.51251L134.562 4.48574C132.041 1.86115 127.595 0.661701 121.488 0.661701V2.14391ZM133.497 5.51604C135.586 7.66276 136.741 11.7259 136.741 17.9648H138.223C138.223 11.6482 137.075 7.06749 134.559 4.48221L133.497 5.51604ZM136.741 17.9648C136.741 24.1894 135.545 28.3636 133.346 30.7073L134.426 31.7215C137.023 28.9546 138.223 24.2957 138.223 17.9648H136.741ZM133.349 30.704C131.164 33.0039 127.227 34.2589 121.299 34.2589V35.7411C127.358 35.7411 131.813 34.4724 134.423 31.7248L133.349 30.704ZM120.92 7.71238C120.524 7.71238 120.176 7.72871 119.882 7.76542C119.602 7.80042 119.314 7.86041 119.075 7.9799L119.738 9.30562C119.736 9.30616 119.742 9.30316 119.757 9.2979C119.772 9.29269 119.794 9.28615 119.822 9.27893C119.881 9.26428 119.961 9.2493 120.066 9.23618C120.277 9.2098 120.559 9.19458 120.92 9.19458V7.71238ZM118.665 8.64276V27.76H120.147V8.64276H118.665ZM119.328 28.4971L121.127 28.6864L121.282 27.2123L119.484 27.023L119.328 28.4971ZM121.204 28.6904C122.671 28.6904 123.546 27.482 124.041 25.899L122.626 25.4569C122.175 26.9024 121.631 27.2082 121.204 27.2082V28.6904ZM124.037 25.9123C124.583 24.2733 124.832 21.5473 124.832 17.8228H123.35C123.35 21.5434 123.094 24.0541 122.631 25.4436L124.037 25.9123ZM124.832 17.8228C124.832 15.9474 124.768 14.3668 124.639 13.0872C124.51 11.8198 124.313 10.7991 124.022 10.071L122.646 10.6215C122.859 11.1553 123.04 12.0117 123.164 13.2365C123.287 14.449 123.35 15.9758 123.35 17.8228H124.832ZM124.022 10.071C123.736 9.35759 123.342 8.76183 122.809 8.34354C122.266 7.91733 121.624 7.71238 120.92 7.71238V9.19458C121.321 9.19458 121.633 9.3051 121.894 9.50982C122.166 9.72247 122.426 10.0731 122.646 10.6215L124.022 10.071ZM159.081 34.6214L159.178 35.3563L159.081 34.6214ZM149.617 34.7161L149.349 35.4068L149.366 35.4134L149.383 35.4192L149.617 34.7161ZM148.766 25.394H149.507V25.2226L149.431 25.0685L148.766 25.394ZM142.567 2.49116L142.807 3.19212L142.567 2.49116ZM154.018 4.05272L154.755 3.97871L154.755 3.97377L154.018 4.05272ZM155.296 16.7818L154.558 16.8558L154.625 17.5229H155.296V16.7818ZM155.816 16.7818V17.5229H156.506L156.555 16.8354L155.816 16.7818ZM156.715 4.38396L157.454 4.43757L157.455 4.43677L156.715 4.38396ZM160.075 2.25456L160.252 2.97421L160.262 2.97167L160.075 2.25456ZM161.968 25.394L161.296 25.0814L161.227 25.2301V25.394H161.968ZM161.227 33.6277C161.227 33.4059 161.364 33.3111 161.335 33.3335C161.307 33.3549 161.214 33.4112 161.005 33.483C160.596 33.6238 159.934 33.7622 158.985 33.8866L159.178 35.3563C160.153 35.2283 160.934 35.0749 161.487 34.8845C161.76 34.7907 162.027 34.6714 162.24 34.5076C162.451 34.3446 162.709 34.0546 162.709 33.6277H161.227ZM158.985 33.8866C157.092 34.1348 155.2 34.2589 153.308 34.2589V35.7411C155.265 35.7411 157.222 35.6128 159.178 35.3563L158.985 33.8866ZM153.308 34.2589C152.372 34.2589 151.612 34.2354 151.023 34.1901C150.418 34.1436 150.045 34.0774 149.852 34.013L149.383 35.4192C149.758 35.5441 150.283 35.6198 150.909 35.6679C151.55 35.7173 152.352 35.7411 153.308 35.7411V34.2589ZM149.886 34.0254C149.687 33.9481 149.6 33.8695 149.562 33.8216C149.532 33.7833 149.507 33.7313 149.507 33.6277H148.024C148.024 34.0288 148.141 34.4107 148.395 34.7351C148.641 35.05 148.98 35.2632 149.349 35.4068L149.886 34.0254ZM149.507 33.6277V25.394H148.024V33.6277H149.507ZM149.431 25.0685C146.309 18.6825 143.971 13.7617 142.414 10.3024C141.636 8.57174 141.056 7.21509 140.673 6.2274C140.481 5.73283 140.342 5.34037 140.252 5.04491C140.207 4.8972 140.176 4.78148 140.158 4.69434C140.138 4.60059 140.137 4.56683 140.137 4.57324H138.655C138.655 4.83341 138.736 5.15787 138.834 5.47682C138.939 5.82215 139.093 6.25286 139.291 6.76384C139.688 7.78725 140.28 9.17121 141.063 10.9107C142.629 14.3917 144.976 19.3292 148.1 25.7195L149.431 25.0685ZM140.137 4.57324C140.137 4.6493 140.096 4.50366 140.596 4.17533C141.047 3.87874 141.772 3.54763 142.807 3.19212L142.326 1.79021C141.248 2.16027 140.387 2.53896 139.782 2.9364C139.225 3.30209 138.655 3.83471 138.655 4.57324H140.137ZM142.807 3.19212C144.84 2.4943 146.982 2.14391 149.239 2.14391V0.661701C146.826 0.661701 144.52 1.03688 142.326 1.79021L142.807 3.19212ZM149.239 2.14391C150.684 2.14391 151.685 2.36011 152.322 2.71343C152.914 3.04162 153.213 3.49536 153.281 4.13168L154.755 3.97377C154.634 2.84348 154.042 1.97226 153.041 1.41714C152.085 0.887149 150.791 0.661701 149.239 0.661701V2.14391ZM153.281 4.12674L154.558 16.8558L156.033 16.7078L154.755 3.97871L153.281 4.12674ZM155.296 17.5229H155.816V16.0407H155.296V17.5229ZM156.555 16.8354L157.454 4.43757L155.976 4.33036L155.077 16.7282L156.555 16.8354ZM157.455 4.43677C157.462 4.32908 157.535 4.10922 157.999 3.8151C158.461 3.5226 159.196 3.23445 160.252 2.97415L159.898 1.53498C158.778 1.81097 157.864 2.14587 157.206 2.56317C156.55 2.97885 156.031 3.55554 155.976 4.33116L157.455 4.43677ZM160.262 2.97167C162.387 2.41743 164.39 2.14391 166.274 2.14391V0.661701C164.246 0.661701 162.117 0.956017 159.888 1.53746L160.262 2.97167ZM166.274 2.14391C168.21 2.14391 169.349 2.43532 169.899 2.84745L170.788 1.66168C169.823 0.938129 168.249 0.661701 166.274 0.661701V2.14391ZM169.899 2.84745C170.566 3.34786 170.738 3.75402 170.738 4.05272H172.22C172.22 3.08956 171.635 2.29695 170.788 1.66168L169.899 2.84745ZM170.738 4.05272C170.738 3.9771 170.754 3.95113 170.728 4.0414C170.71 4.10674 170.679 4.20281 170.632 4.33446C170.539 4.59639 170.396 4.96397 170.199 5.44196C169.807 6.39598 169.216 7.75946 168.424 9.53591C166.842 13.0872 164.466 18.2683 161.296 25.0814L162.64 25.7067C165.811 18.8916 168.191 13.7018 169.778 10.1393C170.572 8.35884 171.17 6.97973 171.57 6.00546C171.77 5.5193 171.924 5.12631 172.029 4.83125C172.081 4.6844 172.124 4.55287 172.156 4.44149C172.18 4.35506 172.22 4.20327 172.22 4.05272H170.738ZM161.227 25.394V33.6277H162.709V25.394H161.227ZM185.29 34.6688L185.572 33.9835L185.29 34.6688ZM208.997 2.44384L209.337 1.78514L209.332 1.78309L208.997 2.44384ZM212.877 6.41872L213.58 6.18433L213.576 6.17207L212.877 6.41872ZM212.073 15.2676L211.463 14.8457L211.456 14.8565L212.073 15.2676ZM209.375 17.3496L209.257 16.618L209.221 18.0745L209.375 17.3496ZM213.066 19.5264L213.628 19.0428L213.066 19.5264ZM211.647 32.3028L211.188 31.7203L211.187 31.7219L211.647 32.3028ZM203.981 34.8107L204.045 35.5491L204.055 35.5481L203.981 34.8107ZM200.621 8.78472L200.033 9.23491L200.047 9.25434L200.063 9.27274L200.621 8.78472ZM197.687 7.98028V7.23918H196.946V7.98028H197.687ZM197.687 14.3685H196.946V15.1096H197.687V14.3685ZM197.687 27.9493H196.946V28.6904H197.687V27.9493ZM200.621 22.3656L200.033 22.8157L200.047 22.8352L200.063 22.8536L200.621 22.3656ZM197.687 21.5611V20.82H196.946V21.5611H197.687ZM198.823 34.2589H188.46V35.7411H198.823V34.2589ZM188.46 34.2589C187.686 34.2589 187.055 34.2317 186.561 34.1801C186.055 34.1272 185.741 34.0532 185.572 33.9835L185.007 35.354C185.374 35.5052 185.857 35.5967 186.407 35.6543C186.97 35.7131 187.657 35.7411 188.46 35.7411V34.2589ZM185.572 33.9835C185.386 33.907 185.306 33.8326 185.273 33.7897C185.247 33.7565 185.226 33.7141 185.226 33.6277H183.744C183.744 34.0145 183.857 34.3822 184.1 34.696C184.335 35.0001 184.657 35.2097 185.007 35.354L185.572 33.9835ZM185.226 33.6277V3.20096H183.744V33.6277H185.226ZM185.226 3.20096C185.226 3.20043 185.226 3.20119 185.226 3.20252C185.226 3.20383 185.226 3.20381 185.226 3.20198C185.228 3.19867 185.235 3.18165 185.261 3.15188C185.316 3.08709 185.437 2.98694 185.67 2.87056C186.141 2.63603 186.91 2.41387 188.025 2.22853C190.242 1.8603 193.612 1.67071 198.161 1.67071V0.188501C193.593 0.188501 190.124 0.377465 187.783 0.766356C186.619 0.959582 185.678 1.21062 185.009 1.54392C184.37 1.86246 183.744 2.3835 183.744 3.20096H185.226ZM198.161 1.67071C203.398 1.67071 206.847 2.18322 208.661 3.1046L209.332 1.78309C207.172 0.685482 203.397 0.188501 198.161 0.188501V1.67071ZM208.657 3.10254C210.565 4.0864 211.692 5.28704 212.178 6.66538L213.576 6.17207C212.927 4.33265 211.466 2.88336 209.337 1.78515L208.657 3.10254ZM212.174 6.65308C212.459 7.50694 212.609 8.5288 212.609 9.73112H214.091C214.091 8.40971 213.926 7.2233 213.58 6.18437L212.174 6.65308ZM212.609 9.73112C212.609 12.1292 212.19 13.7961 211.463 14.8457L212.682 15.6894C213.659 14.2784 214.091 12.2544 214.091 9.73112H212.609ZM211.456 14.8565C210.694 15.9999 209.949 16.5064 209.257 16.618L209.493 18.0813C210.757 17.8774 211.811 16.9959 212.689 15.6787L211.456 14.8565ZM209.221 18.0745C210.547 18.3567 211.634 18.9986 212.505 20.0099L213.628 19.0428C212.543 17.7828 211.169 16.9735 209.53 16.6248L209.221 18.0745ZM212.505 20.0099C213.304 20.9384 213.792 22.6356 213.792 25.2994H215.274C215.274 22.5372 214.784 20.3857 213.628 19.0428L212.505 20.0099ZM213.792 25.2994C213.792 28.2981 212.885 30.3855 211.189 31.7203L212.105 32.8852C214.257 31.1915 215.274 28.61 215.274 25.2994H213.792ZM211.187 31.7219C209.675 32.9199 207.283 33.7326 203.907 34.0734L204.055 35.5481C207.556 35.1948 210.275 34.3355 212.107 32.8836L211.187 31.7219ZM203.917 34.0724C202.493 34.1962 200.796 34.2589 198.823 34.2589V35.7411C200.825 35.7411 202.567 35.6776 204.045 35.549L203.917 34.0724ZM198.87 15.1096C199.856 15.1096 200.702 14.7699 201.273 14.0087C201.814 13.2876 202.025 12.2946 202.025 11.1507H200.543C200.543 12.152 200.351 12.7679 200.087 13.1194C199.854 13.4308 199.494 13.6274 198.87 13.6274V15.1096ZM202.025 11.1507C202.025 10.0002 201.792 8.99722 201.179 8.2967L200.063 9.27274C200.334 9.58172 200.543 10.1561 200.543 11.1507H202.025ZM201.21 8.33454C200.7 7.66722 200.028 7.23918 199.202 7.23918V8.72139C199.448 8.72139 199.723 8.82963 200.033 9.23491L201.21 8.33454ZM199.202 7.23918H197.687V8.72139H199.202V7.23918ZM196.946 7.98028V14.3685H198.428V7.98028H196.946ZM197.687 15.1096H198.87V13.6274H197.687V15.1096ZM197.687 28.6904H198.87V27.2082H197.687V28.6904ZM198.87 28.6904C199.856 28.6904 200.702 28.3508 201.273 27.5895C201.814 26.8684 202.025 25.8754 202.025 24.7316H200.543C200.543 25.7329 200.351 26.3488 200.087 26.7002C199.854 27.0116 199.494 27.2082 198.87 27.2082V28.6904ZM202.025 24.7316C202.025 23.581 201.792 22.5781 201.179 21.8775L200.063 22.8536C200.334 23.1626 200.543 23.7369 200.543 24.7316H202.025ZM201.21 21.9154C200.7 21.2481 200.028 20.82 199.202 20.82V22.3022C199.448 22.3022 199.723 22.4105 200.033 22.8157L201.21 21.9154ZM199.202 20.82H197.687V22.3022H199.202V20.82ZM196.946 21.5611V27.9493H198.428V21.5611H196.946ZM228.212 34.6214L228.116 33.8866L228.212 34.6214ZM218.654 34.6688L218.372 35.354L218.378 35.3568L218.385 35.3595L218.654 34.6688ZM220.925 1.45012L220.803 0.719102L220.802 0.71941L220.925 1.45012ZM234.885 0.976924L234.859 1.71759L234.872 1.71803H234.885V0.976924ZM238.197 1.11889L238.142 1.85791L238.197 1.11889ZM241.178 1.59208L240.962 2.30113L240.971 2.30354L241.178 1.59208ZM243.639 2.44384L243.368 3.13367L243.376 3.13677L243.639 2.44384ZM245.768 3.81612L245.214 4.30849L245.221 4.31637L245.229 4.32405L245.768 3.81612ZM247.235 5.75624L246.607 6.14903L246.607 6.15034L247.235 5.75624ZM247.235 17.9175L246.57 17.5909L246.567 17.596L247.235 17.9175ZM243.923 21.7977L243.525 21.1725L242.9 21.5701L243.297 22.1952L243.923 21.7977ZM236.304 34.7634L236.14 35.4861L236.304 34.7634ZM234.979 33.7224L234.272 33.9454L234.276 33.9573L234.28 33.969L234.979 33.7224ZM231.903 23.9744L232.61 23.7514L232.457 23.2646L231.947 23.2346L231.903 23.9744ZM231.099 23.9271L231.143 23.1873L230.358 23.1411V23.9271H231.099ZM231.099 16.6398H230.358V17.3809H231.099V16.6398ZM234.317 9.30524L233.735 9.76446L233.742 9.77365L233.75 9.78261L234.317 9.30524ZM231.099 8.40616V7.66506H230.358V8.40616H231.099ZM230.358 33.6277C230.358 33.4059 230.495 33.3111 230.466 33.3335C230.438 33.3549 230.345 33.4112 230.136 33.483C229.727 33.6238 229.065 33.7622 228.116 33.8866L228.309 35.3563C229.285 35.2283 230.066 35.0749 230.619 34.8845C230.891 34.7907 231.158 34.6714 231.371 34.5076C231.582 34.3446 231.84 34.0546 231.84 33.6277H230.358ZM228.116 33.8866C226.224 34.1348 224.316 34.2589 222.392 34.2589V35.7411C224.38 35.7411 226.352 35.6128 228.309 35.3563L228.116 33.8866ZM222.392 34.2589C221.442 34.2589 220.673 34.2315 220.08 34.179C219.469 34.1249 219.104 34.0485 218.922 33.9781L218.385 35.3595C218.772 35.5099 219.313 35.5991 219.949 35.6554C220.602 35.7133 221.418 35.7411 222.392 35.7411V34.2589ZM218.936 33.9835C218.75 33.907 218.67 33.8326 218.637 33.7897C218.611 33.7565 218.59 33.7141 218.59 33.6277H217.108C217.108 34.0145 217.222 34.3822 217.464 34.696C217.699 35.0001 218.021 35.2097 218.372 35.354L218.936 33.9835ZM218.59 33.6277V3.20096H217.108V33.6277H218.59ZM218.59 3.20096C218.59 3.16542 218.591 3.01624 218.985 2.79216C219.386 2.56407 220.054 2.34917 221.049 2.18084L220.802 0.71941C219.746 0.898088 218.876 1.1485 218.252 1.50403C217.62 1.86357 217.108 2.4163 217.108 3.20096H218.59ZM221.047 2.18114C223.074 1.84325 225.649 1.67071 228.78 1.67071V0.188501C225.603 0.188501 222.94 0.362971 220.803 0.719104L221.047 2.18114ZM228.78 1.67071C231.938 1.67071 233.96 1.68657 234.859 1.71759L234.91 0.236261C233.98 0.204187 231.932 0.188501 228.78 0.188501V1.67071ZM234.885 1.71803C235.808 1.71803 236.892 1.76423 238.142 1.85791L238.252 0.379858C236.978 0.284262 235.854 0.235821 234.885 0.235821V1.71803ZM238.142 1.85791C239.38 1.95079 240.312 2.10315 240.962 2.30108L241.394 0.883091C240.593 0.639359 239.538 0.476255 238.252 0.379858L238.142 1.85791ZM240.971 2.30354C241.703 2.517 242.501 2.79321 243.368 3.13363L243.91 1.75406C243.01 1.40045 242.168 1.10882 241.386 0.880626L240.971 2.30354ZM243.376 3.13677C244.21 3.45323 244.809 3.85201 245.214 4.30849L246.322 3.32376C245.718 2.64456 244.897 2.12848 243.902 1.75092L243.376 3.13677ZM245.229 4.32405C245.694 4.81845 246.154 5.42476 246.607 6.14903L247.864 5.36346C247.37 4.57349 246.852 3.88638 246.308 3.3082L245.229 4.32405ZM246.607 6.15034C247.354 7.33909 247.772 9.11889 247.772 11.5766H249.254C249.254 8.98685 248.82 6.88641 247.863 5.36215L246.607 6.15034ZM247.772 11.5766C247.772 13.9872 247.359 15.9825 246.57 17.5909L247.9 18.2441C248.814 16.3823 249.254 14.1504 249.254 11.5766H247.772ZM246.567 17.596C245.798 19.194 244.78 20.3738 243.525 21.1725L244.321 22.423C245.842 21.455 247.032 20.048 247.903 18.239L246.567 17.596ZM243.297 22.1952C245.105 25.0408 246.451 27.3511 247.341 29.1325C247.787 30.0234 248.112 30.7699 248.325 31.3768C248.542 31.9958 248.623 32.4193 248.623 32.6813H250.106C250.106 32.1705 249.96 31.5608 249.724 30.8864C249.483 30.1999 249.128 29.3927 248.667 28.4697C247.744 26.6232 246.368 24.2646 244.548 21.4003L243.297 22.1952ZM248.623 32.6813C248.623 32.775 248.592 32.9124 248.339 33.1018C248.064 33.3066 247.591 33.5182 246.855 33.7011C245.392 34.0651 243.135 34.2589 240.042 34.2589V35.7411C243.165 35.7411 245.569 35.5484 247.213 35.1395C248.031 34.936 248.723 34.6646 249.225 34.2897C249.748 33.8994 250.106 33.3606 250.106 32.6813H248.623ZM240.042 34.2589C238.241 34.2589 237.072 34.1778 236.468 34.0407L236.14 35.4861C236.925 35.6644 238.248 35.7411 240.042 35.7411V34.2589ZM236.468 34.0407C235.951 33.9231 235.761 33.7103 235.678 33.4757L234.28 33.969C234.576 34.807 235.269 35.2882 236.14 35.4861L236.468 34.0407ZM235.686 33.4994L232.61 23.7514L231.197 24.1974L234.272 33.9454L235.686 33.4994ZM231.947 23.2346L231.143 23.1873L231.055 24.6669L231.86 24.7143L231.947 23.2346ZM230.358 23.9271V33.6277H231.84V23.9271H230.358ZM231.099 17.3809H232.329V15.8987H231.099V17.3809ZM232.329 17.3809C233.471 17.3809 234.404 16.9183 235.011 15.9766C235.582 15.0907 235.815 13.8565 235.815 12.381H234.333C234.333 13.7448 234.109 14.6399 233.765 15.1737C233.457 15.6515 233.017 15.8987 232.329 15.8987V17.3809ZM235.815 12.381C235.815 10.8862 235.563 9.63509 234.884 8.82787L233.75 9.78261C234.08 10.1742 234.333 10.9736 234.333 12.381H235.815ZM234.898 8.84602C234.318 8.11021 233.566 7.66506 232.661 7.66506V9.14726C233.016 9.14726 233.37 9.3015 233.735 9.76446L234.898 8.84602ZM232.661 7.66506H231.099V9.14726H232.661V7.66506ZM230.358 8.40616V16.6398H231.84V8.40616H230.358ZM262.038 34.7161L262.11 35.4537L262.122 35.4524L262.038 34.7161ZM252.526 34.7634L252.28 35.4623L252.298 35.4688L252.317 35.4744L252.526 34.7634ZM254.467 2.39652L254.719 3.09344L254.729 3.08945L254.467 2.39652ZM264.593 2.63313L265.2 2.20813L265.194 2.19999L265.189 2.192L264.593 2.63313ZM264.183 33.8643C264.183 33.5708 264.389 33.4595 264.337 33.493C264.307 33.5131 264.207 33.5634 263.993 33.6267C263.575 33.7501 262.904 33.8707 261.953 33.9798L262.122 35.4524C263.095 35.3407 263.868 35.2089 264.412 35.0483C264.679 34.9696 264.94 34.8701 265.15 34.7325C265.34 34.6083 265.665 34.3313 265.665 33.8643H264.183ZM261.965 33.9785C260.065 34.1654 258.149 34.2589 256.217 34.2589V35.7411C258.197 35.7411 260.162 35.6453 262.11 35.4536L261.965 33.9785ZM256.217 34.2589C255.263 34.2589 254.492 34.2393 253.899 34.2013C253.289 34.1622 252.919 34.1062 252.736 34.0524L252.317 35.4744C252.671 35.5783 253.183 35.6407 253.804 35.6804C254.441 35.7213 255.247 35.7411 256.217 35.7411V34.2589ZM252.773 34.0645C252.577 33.9952 252.499 33.929 252.475 33.9025C252.47 33.8965 252.467 33.8926 252.467 33.8911C252.466 33.8903 252.466 33.8898 252.466 33.8896C252.466 33.8895 252.466 33.8894 252.466 33.8893C252.466 33.8892 252.465 33.8889 252.465 33.8884C252.465 33.8878 252.465 33.8867 252.465 33.885C252.464 33.8817 252.463 33.8751 252.463 33.8643H250.981C250.981 34.2477 251.113 34.6022 251.371 34.8908C251.615 35.164 251.94 35.3423 252.28 35.4623L252.773 34.0645ZM252.463 33.8643V4.43128H250.981V33.8643H252.463ZM252.463 4.43128C252.463 4.42981 252.461 4.39793 252.51 4.32481C252.563 4.24572 252.665 4.13409 252.85 3.99741C253.223 3.72089 253.831 3.41482 254.719 3.09336L254.214 1.69969C253.272 2.0407 252.509 2.40501 251.967 2.80674C251.442 3.19608 250.981 3.7316 250.981 4.43128H252.463ZM254.729 3.08945C256.463 2.43195 258.422 2.09659 260.618 2.09659V0.614382C258.271 0.614382 256.13 0.973043 254.204 1.7036L254.729 3.08945ZM260.618 2.09659C262.6 2.09659 263.593 2.52765 263.998 3.07425L265.189 2.192C264.332 1.03507 262.674 0.614382 260.618 0.614382V2.09659ZM263.986 3.05812C264.139 3.27691 264.183 3.44694 264.183 3.57952H265.665C265.665 3.08118 265.489 2.62027 265.2 2.20813L263.986 3.05812ZM264.183 3.57952V33.8643H265.665V3.57952H264.183ZM269.532 34.6688L269.814 33.9835L269.532 34.6688ZM269.769 1.97064L270.1 2.63351L270.112 2.62759L270.124 2.62126L269.769 1.97064ZM296.552 4.99912L296.017 5.51252L296.021 5.51604L296.552 4.99912ZM296.41 31.2144L296.947 31.7248L296.95 31.7215L296.41 31.2144ZM281.93 8.64276L281.598 7.9799L281.189 8.18474V8.64276H281.93ZM281.93 27.76H281.189V28.4272L281.852 28.4971L281.93 27.76ZM283.728 27.9493L283.65 28.6864L283.689 28.6904H283.728V27.9493ZM285.857 25.678L285.154 25.4436L285.15 25.4569L285.857 25.678ZM285.857 10.3463L285.169 10.6215L285.857 10.3463ZM283.823 34.2589H272.655V35.7411H283.823V34.2589ZM272.655 34.2589C271.897 34.2589 271.279 34.2317 270.793 34.1802C270.296 34.1275 269.985 34.0537 269.814 33.9835L269.25 35.354C269.616 35.5047 270.093 35.5965 270.637 35.6542C271.192 35.7131 271.867 35.7411 272.655 35.7411V34.2589ZM269.814 33.9835C269.636 33.9101 269.559 33.8363 269.525 33.7905C269.496 33.7517 269.469 33.694 269.469 33.5804H267.987C267.987 33.9716 268.093 34.3476 268.333 34.6716C268.567 34.9885 268.892 35.2066 269.25 35.354L269.814 33.9835ZM269.469 33.5804V3.72149H267.987V33.5804H269.469ZM269.469 3.72149C269.469 3.41692 269.532 3.20286 269.625 3.04737C269.716 2.8943 269.861 2.75283 270.1 2.63351L269.437 1.30778C268.982 1.53547 268.607 1.85931 268.351 2.28985C268.096 2.71798 267.987 3.20583 267.987 3.72149H269.469ZM270.124 2.62126C270.641 2.33917 271.673 2.14391 273.365 2.14391V0.661701C271.65 0.661701 270.285 0.845001 269.414 1.32003L270.124 2.62126ZM273.365 2.14391H284.012V0.661701H273.365V2.14391ZM284.012 2.14391C290.019 2.14391 293.932 3.342 296.017 5.51251L297.086 4.48574C294.565 1.86115 290.119 0.661701 284.012 0.661701V2.14391ZM296.021 5.51604C298.11 7.66276 299.265 11.7259 299.265 17.9648H300.747C300.747 11.6482 299.599 7.06749 297.083 4.48221L296.021 5.51604ZM299.265 17.9648C299.265 24.1894 298.068 28.3636 295.869 30.7073L296.95 31.7215C299.546 28.9546 300.747 24.2957 300.747 17.9648H299.265ZM295.873 30.704C293.688 33.0039 289.751 34.2589 283.823 34.2589V35.7411C289.882 35.7411 294.337 34.4724 296.947 31.7248L295.873 30.704ZM283.444 7.71238C283.048 7.71238 282.7 7.72871 282.406 7.76542C282.126 7.80042 281.837 7.86041 281.598 7.9799L282.261 9.30562C282.26 9.30616 282.266 9.30316 282.281 9.2979C282.296 9.29269 282.317 9.28615 282.346 9.27893C282.405 9.26428 282.485 9.2493 282.59 9.23618C282.801 9.2098 283.083 9.19458 283.444 9.19458V7.71238ZM281.189 8.64276V27.76H282.671V8.64276H281.189ZM281.852 28.4971L283.65 28.6864L283.806 27.2123L282.008 27.023L281.852 28.4971ZM283.728 28.6904C285.195 28.6904 286.07 27.482 286.565 25.899L285.15 25.4569C284.698 26.9024 284.154 27.2082 283.728 27.2082V28.6904ZM286.561 25.9123C287.107 24.2733 287.356 21.5473 287.356 17.8228H285.874C285.874 21.5434 285.618 24.0541 285.154 25.4436L286.561 25.9123ZM287.356 17.8228C287.356 15.9474 287.292 14.3668 287.163 13.0872C287.034 11.8198 286.837 10.7991 286.546 10.071L285.169 10.6215C285.383 11.1553 285.564 12.0117 285.688 13.2365C285.811 14.449 285.874 15.9758 285.874 17.8228H287.356ZM286.546 10.071C286.26 9.35759 285.866 8.76183 285.333 8.34354C284.79 7.91733 284.148 7.71238 283.444 7.71238V9.19458C283.845 9.19458 284.157 9.3051 284.418 9.50982C284.689 9.72247 284.95 10.0731 285.169 10.6215L286.546 10.071ZM310.627 35.0473L310.801 34.3269L310.627 35.0473ZM307.74 33.675L307.299 34.2702L307.31 34.2782L307.321 34.2857L307.74 33.675ZM305.232 30.8358L305.869 30.4571L305.869 30.4568L305.232 30.8358ZM304.049 11.1034L304.748 11.3495L304.049 11.1034ZM307.031 5.8982L307.561 6.41544L307.568 6.40864L307.031 5.8982ZM311.337 2.8224L311.653 3.49268L311.337 2.8224ZM316.021 1.30816L316.133 2.04083L316.141 2.03965L316.148 2.03831L316.021 1.30816ZM328.656 1.92332L328.364 2.60461L328.376 2.60947L328.656 1.92332ZM330.17 10.3463L330.876 10.5726L330.877 10.5688L330.17 10.3463ZM324.586 12.1444L324.395 12.8606L324.407 12.8634L324.586 12.1444ZM317.204 23.4066L316.557 23.7665L316.561 23.7743L317.204 23.4066ZM319.57 25.2521L319.472 25.9867L320.311 26.0986V25.2521H319.57ZM329.839 18.1068L329.635 18.8194L329.644 18.8218L329.839 18.1068ZM331.258 18.9112L330.659 19.3471L330.666 19.3568L330.673 19.3662L331.258 18.9112ZM329.413 34.5268L329.302 33.794L329.3 33.7943L329.413 34.5268ZM320.895 34.6688L320.62 35.3569L320.64 35.3649L320.661 35.3718L320.895 34.6688ZM320.091 33.2018L320.83 33.1427L320.829 33.1286L320.827 33.1145L320.091 33.2018ZM319.76 30.41L320.496 30.3226L320.418 29.6689H319.76V30.41ZM319.381 30.41V29.6689H318.751L318.65 30.2909L319.381 30.41ZM317.678 33.9116L317.136 33.4053L317.128 33.4149L317.678 33.9116ZM313.608 34.6375C312.586 34.6375 311.651 34.5322 310.801 34.3269L310.453 35.7677C311.432 36.0041 312.485 36.1197 313.608 36.1197V34.6375ZM310.801 34.3269C309.996 34.1327 309.117 33.7218 308.16 33.0643L307.321 34.2857C308.383 35.0164 309.428 35.5203 310.453 35.7677L310.801 34.3269ZM308.182 33.0799C307.291 32.4192 306.519 31.5497 305.869 30.4571L304.595 31.2146C305.334 32.4565 306.233 33.4798 307.299 34.2702L308.182 33.0799ZM305.869 30.4568C304.393 27.9774 303.608 24.1469 303.608 18.8639H302.125C302.125 24.2436 302.917 28.3944 304.596 31.2149L305.869 30.4568ZM303.608 18.8639C303.608 15.9949 303.993 13.4942 304.748 11.3495L303.35 10.8573C302.528 13.1923 302.125 15.8652 302.125 18.8639H303.608ZM304.748 11.3495C305.514 9.17477 306.461 7.54508 307.561 6.41539L306.5 5.38102C305.203 6.71197 304.162 8.55241 303.35 10.8573L304.748 11.3495ZM307.568 6.40864C308.7 5.21733 310.059 4.24467 311.653 3.49268L311.021 2.15213C309.271 2.97747 307.759 4.05535 306.493 5.38777L307.568 6.40864ZM311.653 3.49268C313.276 2.72706 314.768 2.2485 316.133 2.04083L315.91 0.575497C314.372 0.809481 312.741 1.34042 311.021 2.15213L311.653 3.49268ZM316.148 2.03831C317.553 1.79399 319.056 1.67071 320.659 1.67071V0.188501C318.98 0.188501 317.392 0.317588 315.894 0.578022L316.148 2.03831ZM320.659 1.67071C324.439 1.67071 326.969 2.00684 328.364 2.6045L328.948 1.24214C327.251 0.514851 324.45 0.188501 320.659 0.188501V1.67071ZM328.376 2.60947C329.027 2.87542 329.475 3.24851 329.767 3.71349C330.062 4.18343 330.233 4.80298 330.233 5.61428H331.716C331.716 4.59588 331.5 3.68542 331.022 2.92504C330.542 2.1597 329.83 1.60216 328.936 1.23717L328.376 2.60947ZM330.233 5.61428C330.233 6.97487 329.982 8.47629 329.463 10.1237L330.877 10.5688C331.431 8.80924 331.716 7.15599 331.716 5.61428H330.233ZM329.464 10.1199C328.949 11.7257 328.327 12.1131 327.804 12.1131V13.5953C329.363 13.5953 330.318 12.3108 330.876 10.5726L329.464 10.1199ZM327.804 12.1131C327.816 12.1131 327.762 12.1108 327.591 12.0803C327.44 12.0532 327.234 12.0112 326.97 11.9531C326.444 11.837 325.71 11.6615 324.766 11.4255L324.407 12.8634C325.355 13.1006 326.104 13.28 326.651 13.4005C326.923 13.4606 327.151 13.5074 327.331 13.5394C327.491 13.5681 327.666 13.5953 327.804 13.5953V12.1131ZM324.777 11.4284C322.874 10.9208 321.376 10.6462 320.328 10.6462V12.1284C321.172 12.1284 322.513 12.3586 324.395 12.8605L324.777 11.4284ZM320.328 10.6462C318.716 10.6462 317.453 11.3504 316.638 12.7246C315.859 14.038 315.517 15.9126 315.517 18.2487H316.999C316.999 16.0106 317.335 14.4545 317.913 13.4807C318.454 12.5678 319.226 12.1284 320.328 12.1284V10.6462ZM315.517 18.2487C315.517 20.5938 315.834 22.4654 316.557 23.7665L317.852 23.0467C317.313 22.0764 316.999 20.5094 316.999 18.2487H315.517ZM316.561 23.7743C317.265 25.0071 318.226 25.8204 319.472 25.9867L319.668 24.5175C319.022 24.4314 318.405 24.0144 317.848 23.0389L316.561 23.7743ZM320.311 25.2521V20.9933H318.829V25.2521H320.311ZM320.311 20.9933C320.311 20.8783 320.363 20.6847 320.67 20.4079C320.983 20.126 321.498 19.8179 322.266 19.5018L321.702 18.1313C320.86 18.4777 320.169 18.8636 319.677 19.3073C319.18 19.756 318.829 20.3196 318.829 20.9933H320.311ZM322.266 19.5018C323.801 18.8699 325.25 18.5639 326.621 18.5639V17.0817C325.026 17.0817 323.385 17.4382 321.702 18.1313L322.266 19.5018ZM326.621 18.5639C328.095 18.5639 329.079 18.6604 329.635 18.8194L330.042 17.3942C329.274 17.1745 328.112 17.0817 326.621 17.0817V18.5639ZM329.644 18.8218C330.276 18.9941 330.553 19.2019 330.659 19.3471L331.858 18.4753C331.459 17.9265 330.79 17.5979 330.034 17.3918L329.644 18.8218ZM330.673 19.3662C331.073 19.8795 331.18 20.2238 331.18 20.4254H332.662C332.662 19.7437 332.328 19.0786 331.843 18.4562L330.673 19.3662ZM331.18 20.4254V33.5331H332.662V20.4254H331.18ZM331.18 33.5331C331.18 33.3548 331.278 33.2661 331.272 33.2714C331.26 33.2827 331.193 33.3321 331.021 33.4001C330.683 33.5342 330.122 33.6702 329.302 33.794L329.524 35.2596C330.376 35.131 331.069 34.9752 331.567 34.7781C331.813 34.6804 332.06 34.5544 332.256 34.3804C332.459 34.2003 332.662 33.9164 332.662 33.5331H331.18ZM329.3 33.7943C327.7 34.0405 326.019 34.1643 324.255 34.1643V35.6465C326.088 35.6465 327.845 35.5178 329.526 35.2593L329.3 33.7943ZM324.255 34.1643C323.381 34.1643 322.678 34.1447 322.142 34.1069C321.587 34.0678 321.27 34.0125 321.13 33.9657L320.661 35.3718C320.994 35.4827 321.474 35.5457 322.038 35.5855C322.622 35.6266 323.363 35.6465 324.255 35.6465V34.1643ZM321.171 33.9807C321.087 33.9472 320.884 33.8216 320.83 33.1427L319.352 33.2609C319.424 34.1595 319.757 35.0117 320.62 35.3569L321.171 33.9807ZM320.827 33.1145L320.496 30.3226L319.024 30.4973L319.355 33.2892L320.827 33.1145ZM319.76 29.6689H319.381V31.1511H319.76V29.6689ZM318.65 30.2909C318.452 31.5064 317.948 32.5377 317.136 33.4053L318.219 34.4179C319.237 33.3297 319.869 32.0266 320.113 30.529L318.65 30.2909ZM317.128 33.4149C316.433 34.1841 315.312 34.6375 313.608 34.6375V36.1197C315.563 36.1197 317.156 35.595 318.228 34.4084L317.128 33.4149ZM336.03 34.6688L336.312 33.9835L336.03 34.6688ZM336.314 1.92332L336.005 1.24952L335.994 1.25475L336.314 1.92332ZM359.926 9.73112L360.645 9.91087L360.646 9.90628L359.926 9.73112ZM348.427 10.8195L348.49 10.081L347.686 10.0132V10.8195H348.427ZM348.427 13.9899H347.686V14.7617L348.457 14.7304L348.427 13.9899ZM358.317 21.2299L357.614 20.9955L357.61 21.0088L358.317 21.2299ZM356.992 22.7441L356.976 23.485L356.984 23.4852H356.992V22.7441ZM348.427 22.5548L348.444 21.8139L347.686 21.7972V22.5548H348.427ZM348.427 25.5833H347.686V26.3819L348.483 26.3224L348.427 25.5833ZM359.216 34.2589H339.153V35.7411H359.216V34.2589ZM339.153 34.2589C338.395 34.2589 337.776 34.2317 337.291 34.1802C336.794 34.1275 336.482 34.0537 336.312 33.9835L335.747 35.354C336.113 35.5047 336.59 35.5965 337.134 35.6542C337.69 35.7131 338.365 35.7411 339.153 35.7411V34.2589ZM336.312 33.9835C336.126 33.907 336.046 33.8326 336.013 33.7897C335.987 33.7565 335.966 33.7141 335.966 33.6277H334.484C334.484 34.0145 334.597 34.3822 334.84 34.696C335.075 35.0001 335.397 35.2097 335.747 35.354L336.312 33.9835ZM335.966 33.6277V3.67416H334.484V33.6277H335.966ZM335.966 3.67416C335.966 3.37532 336.031 3.1659 336.127 3.01255C336.221 2.86009 336.376 2.71498 336.633 2.5919L335.994 1.25475C335.526 1.47868 335.136 1.79888 334.868 2.23004C334.6 2.6603 334.484 3.1528 334.484 3.67416H335.966ZM336.622 2.59703C337.219 2.32353 338.414 2.14391 340.336 2.14391V0.661701C338.409 0.661701 336.922 0.829087 336.005 1.24961L336.622 2.59703ZM340.336 2.14391H359.358V0.661701H340.336V2.14391ZM359.358 2.14391C359.287 2.14391 359.24 2.10272 359.242 2.1056C359.264 2.1297 359.327 2.22059 359.394 2.44386C359.528 2.88971 359.611 3.63 359.611 4.7152H361.093C361.093 3.59214 361.011 2.67623 360.814 2.01795C360.715 1.68915 360.571 1.36599 360.344 1.11406C360.098 0.840906 359.761 0.661701 359.358 0.661701V2.14391ZM359.611 4.7152C359.611 6.87231 359.469 8.4747 359.206 9.55596L360.646 9.90628C360.951 8.65309 361.093 6.91154 361.093 4.7152H359.611ZM359.207 9.55138C359.073 10.087 358.933 10.4175 358.813 10.5977C358.695 10.7735 358.681 10.6935 358.791 10.6935V12.1757C359.373 12.1757 359.785 11.8119 360.046 11.4199C360.304 11.0322 360.495 10.5109 360.645 9.91087L359.207 9.55138ZM358.791 10.6935C356.774 10.6935 353.348 10.4911 348.49 10.081L348.365 11.558C353.224 11.9681 356.706 12.1757 358.791 12.1757V10.6935ZM347.686 10.8195V13.9899H349.169V10.8195H347.686ZM348.457 14.7304C353.13 14.541 356.158 14.4471 357.56 14.4471V12.9649C356.123 12.9649 353.063 13.0603 348.397 13.2494L348.457 14.7304ZM357.56 14.4471C357.618 14.4471 357.642 14.4598 357.664 14.4773C357.697 14.503 357.764 14.5728 357.837 14.7432C357.99 15.1 358.097 15.7238 358.097 16.6872H359.579C359.579 15.6631 359.473 14.7963 359.2 14.1594C359.06 13.8329 358.861 13.5301 358.574 13.3073C358.277 13.0764 357.929 12.9649 357.56 12.9649V14.4471ZM358.097 16.6872C358.097 18.6485 357.923 20.0681 357.614 20.9955L359.02 21.4642C359.405 20.3096 359.579 18.7007 359.579 16.6872H358.097ZM357.61 21.0088C357.467 21.4657 357.317 21.7346 357.192 21.8775C357.084 22.0011 357.023 22.003 356.992 22.003V23.4852C357.529 23.4852 357.974 23.2348 358.307 22.8536C358.624 22.4917 358.852 22.0035 359.025 21.4509L357.61 21.0088ZM357.009 22.0032L348.444 21.8139L348.411 23.2958L356.976 23.485L357.009 22.0032ZM347.686 22.5548V25.5833H349.169V22.5548H347.686ZM348.483 26.3224C353.974 25.9121 357.733 25.7093 359.784 25.7093V24.2271C357.671 24.2271 353.859 24.4343 348.372 24.8443L348.483 26.3224ZM359.784 25.7093C359.713 25.7093 359.666 25.6681 359.668 25.671C359.69 25.6951 359.753 25.7859 359.82 26.0092C359.953 26.4551 360.037 27.1954 360.037 28.2806H361.519C361.519 27.1575 361.437 26.2416 361.239 25.5833C361.141 25.2545 360.997 24.9313 360.77 24.6794C360.524 24.4063 360.187 24.2271 359.784 24.2271V25.7093ZM360.037 28.2806C360.037 30.4716 359.895 32.0707 359.633 33.1167L361.071 33.4762C361.377 32.2509 361.519 30.506 361.519 28.2806H360.037ZM359.633 33.1167C359.499 33.6524 359.359 33.9828 359.239 34.163C359.121 34.3388 359.107 34.2589 359.216 34.2589V35.7411C359.799 35.7411 360.211 35.3772 360.472 34.9852C360.73 34.5976 360.921 34.0763 361.071 33.4762L359.633 33.1167Z" fill="white" mask="url(#path-1-outside-1_572_333)"/>
</g>
<defs>
<filter id="filter0_d_572_333" x="0.928168" y="0.929565" width="362.814" height="40.3778" filterUnits="userSpaceOnUse" color-interpolation-filters="sRGB">
<feFlood flood-opacity="0" result="BackgroundImageFix"/>
<feColorMatrix in="SourceAlpha" type="matrix" values="0 0 0 0 0 0 0 0 0 0 0 0 0 0 0 0 0 0 127 0" result="hardAlpha"/>
<feOffset dy="2.96441"/>
<feGaussianBlur stdDeviation="1.48221"/>
<feComposite in2="hardAlpha" operator="out"/>
<feColorMatrix type="matrix" values="0 0 0 0 0 0 0 0 0 0 0 0 0 0 0 0 0 0 0.25 0"/>
<feBlend mode="normal" in2="BackgroundImageFix" result="effect1_dropShadow_572_333"/>
<feBlend mode="normal" in="SourceGraphic" in2="effect1_dropShadow_572_333" result="shape"/>
</filter>
</defs>
</svg>
