<svg width="22" height="22" viewBox="0 0 23 22" fill="none" xmlns="http://www.w3.org/2000/svg">
<path d="M2.79395 9.16667C2.79395 7.60295 2.79395 6.82109 3.20724 6.28248C3.31364 6.14381 3.43776 6.01969 3.57642 5.91329C4.11504 5.5 4.8969 5.5 6.46061 5.5H15.6273C17.191 5.5 17.9729 5.5 18.5115 5.91329C18.6501 6.01969 18.7743 6.14381 18.8807 6.28248C19.2939 6.82109 19.2939 7.60295 19.2939 9.16667V9.16667H2.79395V9.16667Z" fill="#7E869E" fill-opacity="0.25"/>
<rect x="2.79395" y="5.5" width="16.5" height="13.75" rx="2" stroke="#222222" stroke-width="1.2"/>
<path d="M6.46045 2.75L6.46045 5.5" stroke="#222222" stroke-width="1.2" stroke-linecap="round"/>
<path d="M15.6274 2.75L15.6274 5.5" stroke="#222222" stroke-width="1.2" stroke-linecap="round"/>
<rect x="6.46045" y="11" width="3.66667" height="1.83333" rx="0.5" fill="#222222"/>
<rect x="6.46045" y="14.666" width="3.66667" height="1.83333" rx="0.5" fill="#222222"/>
<rect x="11.9604" y="11" width="3.66667" height="1.83333" rx="0.5" fill="#222222"/>
<rect x="11.9604" y="14.666" width="3.66667" height="1.83333" rx="0.5" fill="#222222"/>
</svg>
