<svg width="22" height="20" viewBox="0 0 22 20" fill="none" xmlns="http://www.w3.org/2000/svg">
<path id="&#234;&#185;&#131;&#237;&#151;&#136;&#235;&#184;&#140;" d="M8.24195 20H6.98754C6.11895 19.476 5.19995 19.0199 4.3934 18.4136C2.87095 17.2687 1.75419 15.787 1.15606 13.9562C0.919527 13.2316 0.740671 12.4881 0.535156 11.7532C0.535156 10.857 0.535156 9.96032 0.535156 9.0641C0.564239 9.01903 0.615132 8.9754 0.619495 8.9279C0.768299 7.28282 1.39454 5.80544 2.32226 4.47493C3.40024 2.92872 4.80104 1.73005 6.53967 0.946764C8.60112 0.018555 10.7445 -0.236884 12.9465 0.223585C14.5509 0.559 16.019 1.2245 17.2987 2.28939C18.7649 3.50939 19.9282 4.93588 20.5248 6.77C20.7609 7.4956 20.9412 8.23914 21.1467 8.97395V11.6631C21.0871 11.9258 21.0231 12.1875 20.9688 12.4517C20.4298 15.0899 19.045 17.1877 16.8745 18.7558C16.2197 19.2288 15.4829 19.5885 14.7835 20H13.4394C13.4094 19.7683 13.3575 19.5371 13.3536 19.3049C13.3425 18.573 13.328 17.8406 13.3556 17.1097C13.3861 16.3099 13.312 15.5519 12.6974 14.8902C12.9198 14.8529 13.0769 14.8287 13.233 14.8011C14.2819 14.6149 15.2769 14.3265 16.0816 13.5578C16.8343 12.839 17.161 11.9568 17.3103 10.9501C17.511 9.59679 17.3597 8.34917 16.5047 7.23435C16.4252 7.13062 16.3748 6.93916 16.4126 6.82138C16.6535 6.07542 16.5372 5.35854 16.337 4.62664C16.2459 4.29316 16.0583 4.25293 15.8174 4.33969C15.2144 4.55636 14.5683 4.72261 14.0443 5.06772C13.5776 5.37551 13.1922 5.35563 12.6978 5.2553C11.615 5.03573 10.5181 4.99259 9.4193 5.19859C8.73974 5.32607 8.0946 5.45257 7.44413 4.93685C6.90562 4.50934 6.20135 4.32612 5.49126 4.32127C5.14227 5.53497 5.14712 5.534 5.35796 6.9062C5.37638 7.02544 5.27993 7.17327 5.21207 7.29348C5.0337 7.60999 4.80831 7.90372 4.66144 8.23284C4.23393 9.19401 4.29501 10.1901 4.47095 11.2012C4.78747 13.0193 5.88193 14.2141 7.65982 14.6222C8.10624 14.7245 8.55556 14.8141 8.92442 14.8927C8.75138 15.3042 8.59433 15.7046 8.41305 16.0938C8.35586 16.2169 8.25552 16.3555 8.1392 16.4088C7.49842 16.7021 6.37293 16.7302 5.8005 16.0783C5.45054 15.6798 5.13258 15.2509 4.76226 14.8733C4.29695 14.3988 3.70221 14.3086 3.30573 14.6188C3.34741 14.6746 3.37795 14.7516 3.43369 14.7831C4.22182 15.2242 4.58292 15.9784 4.97941 16.7404C5.16311 17.0932 5.57269 17.3763 5.94203 17.5736C6.68799 17.972 7.50036 17.7999 8.33017 17.6943C8.33017 18.0413 8.3418 18.3835 8.32726 18.7243C8.30933 19.1498 8.27055 19.5749 8.2405 20H8.24195Z" fill="#9E9E9E"/>
</svg>
