<svg width="22" height="22" viewBox="0 0 23 22" fill="none" xmlns="http://www.w3.org/2000/svg">
<path fill-rule="evenodd" clip-rule="evenodd" d="M11.4437 18.1349C12.8462 17.4016 17.4608 14.6427 17.4608 10.0827C17.4608 6.53886 14.5879 3.66602 11.0441 3.66602C7.50028 3.66602 4.62744 6.53886 4.62744 10.0827C4.62744 14.6427 9.24197 17.4016 10.6446 18.1349C10.897 18.2669 11.1912 18.2669 11.4437 18.1349ZM11.0441 12.8327C12.5629 12.8327 13.7941 11.6015 13.7941 10.0827C13.7941 8.5639 12.5629 7.33268 11.0441 7.33268C9.52532 7.33268 8.29411 8.5639 8.29411 10.0827C8.29411 11.6015 9.52532 12.8327 11.0441 12.8327Z" fill="#7E869E" fill-opacity="0.25"/>
<path d="M11.4437 18.1349L11.1657 17.6032L11.1657 17.6032L11.4437 18.1349ZM10.6446 18.1349L10.9225 17.6032L10.9225 17.6032L10.6446 18.1349ZM16.8608 10.0827C16.8608 12.1471 15.8179 13.8342 14.5504 15.1231C13.2831 16.4118 11.8399 17.2507 11.1657 17.6032L11.7216 18.6666C12.45 18.2858 14.0153 17.3787 15.406 15.9645C16.7963 14.5507 18.0608 12.5783 18.0608 10.0827H16.8608ZM11.0441 4.26602C14.2566 4.26602 16.8608 6.87023 16.8608 10.0827H18.0608C18.0608 6.20748 14.9193 3.06602 11.0441 3.06602V4.26602ZM5.22744 10.0827C5.22744 6.87023 7.83165 4.26602 11.0441 4.26602V3.06602C7.16891 3.06602 4.02744 6.20748 4.02744 10.0827H5.22744ZM10.9225 17.6032C10.2484 17.2507 8.80508 16.4118 7.53783 15.1231C6.27028 13.8342 5.22744 12.1471 5.22744 10.0827H4.02744C4.02744 12.5783 5.29187 14.5507 6.68223 15.9645C8.07289 17.3787 9.63817 18.2858 10.3666 18.6666L10.9225 17.6032ZM11.1657 17.6032C11.0874 17.6441 11.0008 17.6441 10.9225 17.6032L10.3666 18.6666C10.7931 18.8897 11.2951 18.8897 11.7216 18.6666L11.1657 17.6032ZM13.1941 10.0827C13.1941 11.2701 12.2315 12.2327 11.0441 12.2327V13.4327C12.8943 13.4327 14.3941 11.9328 14.3941 10.0827H13.1941ZM11.0441 7.93268C12.2315 7.93268 13.1941 8.89527 13.1941 10.0827H14.3941C14.3941 8.23253 12.8943 6.73268 11.0441 6.73268V7.93268ZM8.89411 10.0827C8.89411 8.89527 9.8567 7.93268 11.0441 7.93268V6.73268C9.19395 6.73268 7.69411 8.23253 7.69411 10.0827H8.89411ZM11.0441 12.2327C9.8567 12.2327 8.89411 11.2701 8.89411 10.0827H7.69411C7.69411 11.9328 9.19395 13.4327 11.0441 13.4327V12.2327Z" fill="#222222"/>
</svg>
