<svg width="20" height="20" viewBox="0 0 20 20" fill="none" xmlns="http://www.w3.org/2000/svg">
<path id="&#237;&#138;&#184;&#236;&#156;&#132;&#237;&#132;&#176;" d="M0.000493401 19.9926C2.55532 17.0189 5.09979 14.0575 7.64771 11.0917C5.1062 7.39855 2.56716 3.70939 0.0207228 0.00987588C0.0532873 0.00691547 0.0745035 0.00296827 0.0957197 0.00296827C1.96521 0.00247487 3.8352 0.00296827 5.7047 0.000501265C5.77081 0.000501265 5.79647 0.0335591 5.82657 0.0774718C6.94856 1.70865 8.07105 3.33885 9.19353 4.96954C9.72591 5.74319 10.2583 6.51635 10.7907 7.28951C10.807 7.31319 10.8242 7.33589 10.8449 7.36401C10.8676 7.33984 10.8879 7.31961 10.9066 7.2979C11.9127 6.12706 12.9187 4.95523 13.9252 3.78488C14.989 2.54842 16.0543 1.31295 17.1171 0.0754981C17.1624 0.0222109 17.2078 -0.000485536 17.2789 7.86453e-06C17.7644 0.00346167 18.2499 0.00198147 18.7359 0.00198147H18.8208C18.8237 0.00888908 18.8252 0.0113561 18.8257 0.0143165C18.8262 0.0167835 18.8257 0.0197439 18.8257 0.0222109C18.8252 0.0251713 18.8237 0.0276383 18.8218 0.0301053C18.8203 0.0325723 18.8183 0.0345459 18.8163 0.0370129C18.8144 0.0394799 18.8129 0.0414535 18.8109 0.0439205C18.8055 0.0503347 18.7995 0.0572423 18.7941 0.0636565C16.4041 2.84397 14.0141 5.62477 11.624 8.40509C11.6201 8.40953 11.6166 8.41397 11.6127 8.41841C11.6107 8.42088 11.6087 8.42285 11.6072 8.42532C11.6053 8.42778 11.6038 8.42976 11.6023 8.43222C11.6008 8.43469 11.5994 8.43716 11.5989 8.44012C11.5979 8.44308 11.5979 8.44555 11.5959 8.45936C14.2361 12.2951 16.8807 16.1377 19.5347 19.9931C19.4967 19.9956 19.4701 19.9985 19.4429 19.9985C19.1232 19.9985 18.803 19.9985 18.4833 19.9985C16.9478 19.9985 15.4128 19.998 13.8774 20C13.8053 20 13.7634 19.9783 13.7225 19.9186C11.9669 17.3647 10.2099 14.8124 8.45294 12.26C8.43468 12.2339 8.41593 12.2082 8.39028 12.1717C8.36857 12.1949 8.34932 12.2141 8.33156 12.2349C7.7533 12.9074 7.17503 13.5799 6.59726 14.2524C5.04699 16.0562 3.49624 17.8596 1.94597 19.6635C1.86259 19.7607 1.77871 19.8569 1.69631 19.9551C1.67263 19.9832 1.64845 19.9995 1.60849 19.9995C1.08795 19.998 0.567411 19.9985 0.0468731 19.9985C0.0360182 19.9985 0.0256568 19.9956 0 19.9916L0.000493401 19.9926ZM2.49957 1.30752C2.53262 1.35637 2.55335 1.38745 2.57407 1.41804C5.05242 5.01937 7.53127 8.62021 10.0096 12.2215C11.4765 14.3525 12.9429 16.4835 14.4093 18.615C14.4438 18.6649 14.4749 18.6989 14.5459 18.6984C15.3512 18.6954 16.1569 18.6964 16.9621 18.6964C16.9868 18.6964 17.012 18.693 17.0504 18.6905C17.0238 18.6501 17.0041 18.6195 16.9833 18.5889C14.6298 15.1696 12.2768 11.7508 9.92327 8.33157C8.32959 6.01604 6.7359 3.70101 5.1437 1.38449C5.10472 1.32775 5.06476 1.30604 4.99568 1.30604C4.19884 1.30851 3.40249 1.30752 2.60565 1.30752C2.57703 1.30752 2.54841 1.30752 2.49957 1.30752Z" fill="#9E9E9E"/>
</svg>
