<svg width="29" height="20" viewBox="0 0 29 20" fill="none" xmlns="http://www.w3.org/2000/svg">
<g id="&#236;&#156;&#160;&#237;&#138;&#156;&#235;&#184;&#140;">
<path id="Vector" d="M28.1198 3.1233C27.7927 1.8964 26.8232 0.926992 25.5933 0.596789C23.3667 0 14.43 0 14.43 0C14.43 0 5.49941 0 3.26978 0.596789C2.04288 0.923963 1.07348 1.89034 0.743273 3.1233C0.146484 5.34989 0.146484 10 0.146484 10C0.146484 10 0.146484 14.6501 0.743273 16.8767C1.07045 18.1036 2.03985 19.073 3.26978 19.4032C5.50244 20 14.43 20 14.43 20C14.43 20 23.3667 20 25.5933 19.4032C26.8202 19.076 27.7896 18.1066 28.1198 16.8767C28.7136 14.6501 28.7136 10 28.7136 10C28.7136 10 28.7136 5.34989 28.1198 3.1233Z" fill="#9E9E9E"/>
<path id="Vector_2" d="M11.5752 14.2835L18.9972 9.99693L11.5752 5.71338V14.2835Z" fill="white"/>
</g>
</svg>
